<svg width="22" height="22" viewBox="0 0 22 22" fill="none" xmlns="http://www.w3.org/2000/svg">
<path d="M21.0938 0H0.78125C0.57405 0 0.375336 0.08231 0.228823 0.228823C0.08231 0.375336 0 0.57405 0 0.78125L0 4.6875C0 4.8947 0.08231 5.09341 0.228823 5.23993C0.375336 5.38644 0.57405 5.46875 0.78125 5.46875H2.34375C2.55095 5.46875 2.74966 5.38644 2.89618 5.23993C3.04269 5.09341 3.125 4.8947 3.125 4.6875V3.90625H8.98438V9.375H7.8125C7.6053 9.375 7.40659 9.45731 7.26007 9.60382C7.11356 9.75034 7.03125 9.94905 7.03125 10.1562V11.7188C7.03125 11.926 7.11356 12.1247 7.26007 12.2712C7.40659 12.4177 7.6053 12.5 7.8125 12.5H14.0625C14.2697 12.5 14.4684 12.4177 14.6149 12.2712C14.7614 12.1247 14.8438 11.926 14.8438 11.7188V10.1562C14.8438 9.94905 14.7614 9.75034 14.6149 9.60382C14.4684 9.45731 14.2697 9.375 14.0625 9.375H12.8906V3.90625H18.75V4.6875C18.75 4.8947 18.8323 5.09341 18.9788 5.23993C19.1253 5.38644 19.324 5.46875 19.5312 5.46875H21.0938C21.301 5.46875 21.4997 5.38644 21.6462 5.23993C21.7927 5.09341 21.875 4.8947 21.875 4.6875V0.78125C21.875 0.57405 21.7927 0.375336 21.6462 0.228823C21.4997 0.08231 21.301 0 21.0938 0ZM17.7397 12.729C17.2852 12.2734 16.4062 12.5176 16.4062 13.2812V15.625H5.46875V13.2812C5.46875 12.5825 4.62354 12.2402 4.13525 12.729L0.229004 16.6353C0.0826019 16.7818 0.000362099 16.9804 0.000362099 17.1875C0.000362099 17.3946 0.0826019 17.5932 0.229004 17.7397L4.13525 21.646C4.58984 22.1016 5.46875 21.8574 5.46875 21.0938V18.75H16.4062V21.0938C16.4062 21.7925 17.2515 22.1353 17.7397 21.646L21.646 17.7397C21.7924 17.5932 21.8746 17.3946 21.8746 17.1875C21.8746 16.9804 21.7924 16.7818 21.646 16.6353L17.7397 12.729Z" fill="white"/>
</svg>
