<svg width="148" height="177" viewBox="0 0 148 177" fill="none" xmlns="http://www.w3.org/2000/svg">
<path fill-rule="evenodd" clip-rule="evenodd" d="M124.214 77.4375H132.143C140.897 77.4375 148 84.8701 148 94.0312V160.406C148 169.567 140.897 177 132.143 177H15.8571C7.10268 177 0 169.567 0 160.406V94.0312C0 84.8701 7.10268 77.4375 15.8571 77.4375H23.7857V52.5469C23.7857 23.577 46.3161 0 74 0C101.684 0 124.214 23.577 124.214 52.5469V77.4375ZM50.2143 52.5469V77.4375H97.7857V52.5469C97.7857 38.8225 87.1152 27.6562 74 27.6562C60.8848 27.6562 50.2143 38.8225 50.2143 52.5469ZM74 114C65.1634 114 58 121.163 58 130C58 138.837 65.1634 146 74 146C82.8366 146 90 138.837 90 130C90 121.163 82.8366 114 74 114Z" fill="#ABABAB"/>
</svg>
