<svg width="25" height="25" viewBox="0 0 25 25" fill="none" xmlns="http://www.w3.org/2000/svg">
<path fill-rule="evenodd" clip-rule="evenodd" d="M0.722229 7.10938C0.722229 3.24338 3.85624 0.109375 7.72223 0.109375H17.7222C21.5882 0.109375 24.7222 3.24338 24.7222 7.10938V17.1094C24.7222 20.9754 21.5882 24.1094 17.7222 24.1094H7.72223C3.85624 24.1094 0.722229 20.9754 0.722229 17.1094V7.10938ZM12.7222 16.1094C14.9314 16.1094 16.7222 14.3185 16.7222 12.1094C16.7222 9.90024 14.9314 8.10938 12.7222 8.10938C10.5131 8.10938 8.72223 9.90024 8.72223 12.1094C8.72223 14.3185 10.5131 16.1094 12.7222 16.1094ZM12.7222 18.1094C16.0359 18.1094 18.7222 15.4231 18.7222 12.1094C18.7222 8.79567 16.0359 6.10938 12.7222 6.10938C9.40852 6.10938 6.72223 8.79567 6.72223 12.1094C6.72223 15.4231 9.40852 18.1094 12.7222 18.1094ZM19.1222 6.90938C19.8954 6.90938 20.5222 6.28257 20.5222 5.50938C20.5222 4.73618 19.8954 4.10938 19.1222 4.10938C18.349 4.10938 17.7222 4.73618 17.7222 5.50938C17.7222 6.28257 18.349 6.90938 19.1222 6.90938Z" fill="#240259"/>
</svg>
