<svg width="10" height="13" viewBox="0 0 10 13" fill="none" xmlns="http://www.w3.org/2000/svg">
<path d="M2.86511 11.536C2.86536 11.6957 2.91116 11.8521 2.99708 11.9852L3.41786 12.6374C3.48974 12.7489 3.58724 12.8404 3.70167 12.9036C3.81611 12.9669 3.94393 13 4.07377 13H5.59314C5.72298 13 5.85081 12.9669 5.96524 12.9036C6.07968 12.8404 6.17717 12.7489 6.24905 12.6374L6.66983 11.9852C6.75572 11.8521 6.80163 11.6959 6.8018 11.536L6.80278 10.5623H2.86388L2.86511 11.536ZM0.5 4.46868C0.5 5.59523 0.905019 6.62303 1.5725 7.40834C1.97924 7.88694 2.61545 8.88681 2.85797 9.73026C2.85896 9.73687 2.8597 9.74347 2.86068 9.75007H6.80598C6.80697 9.74347 6.80771 9.73712 6.80869 9.73026C7.05121 8.88681 7.68743 7.88694 8.09417 7.40834C8.76165 6.62303 9.16667 5.59523 9.16667 4.46868C9.16667 1.99594 7.21938 -0.00759538 4.81979 2.1647e-05C2.30818 0.00789257 0.5 2.10664 0.5 4.46868ZM4.83333 2.43747C3.74729 2.43747 2.86364 3.34872 2.86364 4.46868C2.86364 4.69313 2.68735 4.87492 2.4697 4.87492C2.25205 4.87492 2.07576 4.69313 2.07576 4.46868C2.07576 2.90059 3.31273 1.62499 4.83333 1.62499C5.05099 1.62499 5.22727 1.80678 5.22727 2.03123C5.22727 2.25568 5.05099 2.43747 4.83333 2.43747Z" fill="#240259"/>
</svg>
