<svg width="95" height="14" viewBox="0 0 95 14" fill="none" xmlns="http://www.w3.org/2000/svg">
<path d="M67.0536 9.35714H71V1.69643C71 1.31049 70.6895 1 70.3036 1H58.6964C58.3105 1 58 1.31049 58 1.69643V13.3036C58 13.6895 58.3105 14 58.6964 14H66.3571V10.0536C66.3571 9.67054 66.6705 9.35714 67.0536 9.35714ZM70.7969 10.9531L67.9531 13.7969C67.8225 13.9275 67.6455 14 67.4598 14H67.2857V10.2857H71V10.4627C71 10.6455 70.9275 10.8225 70.7969 10.9531Z" fill="#240259"/>
<path d="M87.8651 12.536C87.8654 12.6957 87.9112 12.8521 87.9971 12.9852L88.4179 13.6374C88.4897 13.7489 88.5872 13.8404 88.7017 13.9036C88.8161 13.9669 88.9439 14 89.0738 14H90.5931C90.723 14 90.8508 13.9669 90.9652 13.9036C91.0797 13.8404 91.1772 13.7489 91.2491 13.6374L91.6698 12.9852C91.7557 12.8521 91.8016 12.6959 91.8018 12.536L91.8028 11.5623H87.8639L87.8651 12.536ZM85.5 5.46868C85.5 6.59523 85.905 7.62303 86.5725 8.40834C86.9792 8.88694 87.6155 9.88681 87.858 10.7303C87.859 10.7369 87.8597 10.7435 87.8607 10.7501H91.806C91.807 10.7435 91.8077 10.7371 91.8087 10.7303C92.0512 9.88681 92.6874 8.88694 93.0942 8.40834C93.7616 7.62303 94.1667 6.59523 94.1667 5.46868C94.1667 2.99594 92.2194 0.992405 89.8198 1.00002C87.3082 1.00789 85.5 3.10664 85.5 5.46868ZM89.8333 3.43747C88.7473 3.43747 87.8636 4.34872 87.8636 5.46868C87.8636 5.69313 87.6873 5.87492 87.4697 5.87492C87.252 5.87492 87.0758 5.69313 87.0758 5.46868C87.0758 3.90059 88.3127 2.62499 89.8333 2.62499C90.051 2.62499 90.2273 2.80678 90.2273 3.03123C90.2273 3.25568 90.051 3.43747 89.8333 3.43747Z" fill="#240259"/>
<path d="M14.3266 0.957269C12.6284 -0.502078 10.1028 -0.239583 8.54404 1.38226L7.93356 2.01663L7.32308 1.38226C5.76743 -0.239583 3.23873 -0.502078 1.54053 0.957269C-0.405575 2.63224 -0.507839 5.63843 1.23374 7.45403L7.23011 13.6977C7.61747 14.1008 8.24655 14.1008 8.63391 13.6977L14.6303 7.45403C16.375 5.63843 16.2727 2.63224 14.3266 0.957269Z" fill="#240259"/>
<path d="M42.5 2L32 12.5" stroke="#240259" stroke-width="3" stroke-linecap="round"/>
<path d="M42.5 12.5L32 2" stroke="#240259" stroke-width="3" stroke-linecap="round"/>
</svg>
