<svg width="390" height="844" viewBox="0 0 390 844" fill="none" xmlns="http://www.w3.org/2000/svg">
<path opacity="0.1" fill-rule="evenodd" clip-rule="evenodd" d="M2.73438 269.562C69.4659 269.562 123.562 215.466 123.562 148.734C123.562 82.0028 69.4659 27.9062 2.73438 27.9062C-63.9972 27.9062 -118.094 82.0028 -118.094 148.734C-118.094 215.466 -63.9972 269.562 2.73438 269.562Z" fill="#C4D0FB"/>
<path opacity="0.2" fill-rule="evenodd" clip-rule="evenodd" d="M6 361C121.428 361 215 267.428 215 152C215 36.5725 121.428 -57 6 -57C-109.428 -57 -203 36.5725 -203 152C-203 267.428 -109.428 361 6 361Z" stroke="#C4D0FB"/>
<path opacity="0.2" fill-rule="evenodd" clip-rule="evenodd" d="M333 428C338.523 428 343 423.523 343 418C343 412.477 338.523 408 333 408C327.477 408 323 412.477 323 418C323 423.523 327.477 428 333 428Z" fill="#C4D0FB"/>
</svg>
