<svg width="390" height="844" viewBox="0 0 390 844" fill="none" xmlns="http://www.w3.org/2000/svg">
<path opacity="0.1" fill-rule="evenodd" clip-rule="evenodd" d="M-9.26562 823.562C57.4659 823.562 111.562 769.466 111.562 702.734C111.562 636.003 57.4659 581.906 -9.26562 581.906C-75.9972 581.906 -130.094 636.003 -130.094 702.734C-130.094 769.466 -75.9972 823.562 -9.26562 823.562Z" fill="#C4D0FB"/>
<path opacity="0.2" fill-rule="evenodd" clip-rule="evenodd" d="M-6 915C109.428 915 203 821.428 203 706C203 590.572 109.428 497 -6 497C-121.428 497 -215 590.572 -215 706C-215 821.428 -121.428 915 -6 915Z" stroke="#C4D0FB"/>
<path opacity="0.1" fill-rule="evenodd" clip-rule="evenodd" d="M392.734 269.562C459.466 269.562 513.562 215.466 513.562 148.734C513.562 82.0028 459.466 27.9062 392.734 27.9062C326.003 27.9062 271.906 82.0028 271.906 148.734C271.906 215.466 326.003 269.562 392.734 269.562Z" fill="#C4D0FB"/>
<path opacity="0.2" fill-rule="evenodd" clip-rule="evenodd" d="M396 361C511.428 361 605 267.428 605 152C605 36.5725 511.428 -57 396 -57C280.572 -57 187 36.5725 187 152C187 267.428 280.572 361 396 361Z" stroke="#C4D0FB"/>
<path opacity="0.1" fill-rule="evenodd" clip-rule="evenodd" d="M76 275C89.2548 275 100 264.255 100 251C100 237.745 89.2548 227 76 227C62.7452 227 52 237.745 52 251C52 264.255 62.7452 275 76 275Z" fill="#C4D0FB"/>
<path opacity="0.2" fill-rule="evenodd" clip-rule="evenodd" d="M283 621C288.523 621 293 616.523 293 611C293 605.477 288.523 601 283 601C277.477 601 273 605.477 273 611C273 616.523 277.477 621 283 621Z" fill="#C4D0FB"/>
</svg>
