<svg width="390" height="840" viewBox="0 0 390 840" fill="none" xmlns="http://www.w3.org/2000/svg">
<path opacity="0.1" fill-rule="evenodd" clip-rule="evenodd" d="M25.7344 823.562C92.4659 823.562 146.562 769.466 146.562 702.734C146.562 636.003 92.4659 581.906 25.7344 581.906C-40.9972 581.906 -95.0938 636.003 -95.0938 702.734C-95.0938 769.466 -40.9972 823.562 25.7344 823.562Z" fill="#C4D0FB"/>
<path opacity="0.2" fill-rule="evenodd" clip-rule="evenodd" d="M29 915C144.428 915 238 821.428 238 706C238 590.572 144.428 497 29 497C-86.4275 497 -180 590.572 -180 706C-180 821.428 -86.4275 915 29 915Z" stroke="#C4D0FB"/>
<path opacity="0.1" fill-rule="evenodd" clip-rule="evenodd" d="M427.734 269.562C494.466 269.562 548.562 215.466 548.562 148.734C548.562 82.0028 494.466 27.9062 427.734 27.9062C361.003 27.9062 306.906 82.0028 306.906 148.734C306.906 215.466 361.003 269.562 427.734 269.562Z" fill="#C4D0FB"/>
<path opacity="0.1" fill-rule="evenodd" clip-rule="evenodd" d="M427.734 269.562C494.466 269.562 548.562 215.466 548.562 148.734C548.562 82.0028 494.466 27.9062 427.734 27.9062C361.003 27.9062 306.906 82.0028 306.906 148.734C306.906 215.466 361.003 269.562 427.734 269.562Z" fill="#C4D0FB"/>
<path opacity="0.2" fill-rule="evenodd" clip-rule="evenodd" d="M431 361C546.428 361 640 267.428 640 152C640 36.5725 546.428 -57 431 -57C315.572 -57 222 36.5725 222 152C222 267.428 315.572 361 431 361Z" stroke="#C4D0FB"/>
<path opacity="0.1" fill-rule="evenodd" clip-rule="evenodd" d="M111 275C124.255 275 135 264.255 135 251C135 237.745 124.255 227 111 227C97.7452 227 87 237.745 87 251C87 264.255 97.7452 275 111 275Z" fill="#C4D0FB"/>
<path opacity="0.2" fill-rule="evenodd" clip-rule="evenodd" d="M318 621C323.523 621 328 616.523 328 611C328 605.477 323.523 601 318 601C312.477 601 308 605.477 308 611C308 616.523 312.477 621 318 621Z" fill="#C4D0FB"/>
</svg>
