<svg width="390" height="844" viewBox="0 0 390 844" fill="none" xmlns="http://www.w3.org/2000/svg">
<path opacity="0.1" fill-rule="evenodd" clip-rule="evenodd" d="M380.734 823.562C447.466 823.562 501.562 769.466 501.562 702.734C501.562 636.003 447.466 581.906 380.734 581.906C314.003 581.906 259.906 636.003 259.906 702.734C259.906 769.466 314.003 823.562 380.734 823.562Z" fill="#C4D0FB"/>
<path opacity="0.2" fill-rule="evenodd" clip-rule="evenodd" d="M384 915C499.428 915 593 821.428 593 706C593 590.572 499.428 497 384 497C268.572 497 175 590.572 175 706C175 821.428 268.572 915 384 915Z" stroke="#C4D0FB"/>
<path opacity="0.1" fill-rule="evenodd" clip-rule="evenodd" d="M36.7344 269.562C103.466 269.562 157.562 215.466 157.562 148.734C157.562 82.0028 103.466 27.9062 36.7344 27.9062C-29.9972 27.9062 -84.0938 82.0028 -84.0938 148.734C-84.0938 215.466 -29.9972 269.562 36.7344 269.562Z" fill="#C4D0FB"/>
<path opacity="0.1" fill-rule="evenodd" clip-rule="evenodd" d="M36.7344 269.562C103.466 269.562 157.562 215.466 157.562 148.734C157.562 82.0028 103.466 27.9062 36.7344 27.9062C-29.9972 27.9062 -84.0938 82.0028 -84.0938 148.734C-84.0938 215.466 -29.9972 269.562 36.7344 269.562Z" fill="#C4D0FB"/>
<path opacity="0.2" fill-rule="evenodd" clip-rule="evenodd" d="M40 361C155.428 361 249 267.428 249 152C249 36.5725 155.428 -57 40 -57C-75.4275 -57 -169 36.5725 -169 152C-169 267.428 -75.4275 361 40 361Z" stroke="#C4D0FB"/>
<path opacity="0.1" fill-rule="evenodd" clip-rule="evenodd" d="M282 275C295.255 275 306 264.255 306 251C306 237.745 295.255 227 282 227C268.745 227 258 237.745 258 251C258 264.255 268.745 275 282 275Z" fill="#C4D0FB"/>
</svg>
