<svg width="163" height="242" viewBox="0 0 163 242" fill="none" xmlns="http://www.w3.org/2000/svg">
<path d="M113.299 131.637H49.6435C32.4708 131.637 18.5615 117.715 18.5615 100.555V36.8876C18.5615 19.7149 32.483 5.80566 49.6435 5.80566H113.299C130.471 5.80566 144.381 19.7272 144.381 36.8876V100.543C144.381 117.715 130.471 131.637 113.299 131.637Z" fill="#A5A5A5"/>
<path d="M113.299 125.831H49.6435C32.4708 125.831 18.5615 111.91 18.5615 94.7493V31.082C18.5493 13.9215 32.4708 0 49.6435 0H113.299C130.471 0 144.381 13.9215 144.381 31.082V94.7371C144.381 111.91 130.471 125.831 113.299 125.831Z" fill="white"/>
<path d="M109.913 8.82497C124.054 8.82497 135.568 20.3264 135.568 34.4801V91.3517C135.568 105.493 124.067 117.007 109.913 117.007H53.0292C38.8877 117.007 27.374 105.505 27.374 91.3517V34.4801C27.374 20.3386 38.8755 8.82497 53.0292 8.82497H109.913ZM109.913 5.1582H53.0292C36.8343 5.1582 23.7073 18.2852 23.7073 34.4801V91.3517C23.7073 107.547 36.8343 120.674 53.0292 120.674H109.901C126.096 120.674 139.223 107.547 139.223 91.3517V34.4801C139.223 18.2852 126.096 5.1582 109.913 5.1582Z" fill="#240259"/>
<path d="M93.5479 73.9093C95.5769 76.5616 96.7991 79.8373 96.9214 83.3452C97.2269 92.4021 90.1134 100.005 81.0565 100.31C71.9996 100.616 64.3971 93.5021 64.0916 84.4452C63.9693 80.6684 65.0938 77.0872 67.3428 74.0682C68.455 72.5893 68.1495 70.487 66.6705 69.3748C65.1916 68.2625 63.0893 68.5681 61.9771 70.047C58.8481 74.2394 57.2225 79.4217 57.3936 84.6652C57.8214 97.4133 68.5406 107.424 81.2887 106.996C94.0246 106.58 104.047 95.8611 103.619 83.1129C103.314 74.166 97.8869 66.2702 89.8445 62.7257L98.9503 34.8216C99.9892 31.6437 98.2536 28.2214 95.0635 27.1825L81.3254 19.2012L80.152 22.3179C79.1131 25.4958 80.8487 28.9181 84.0388 29.957L93.1813 32.9393L91.5312 37.9872L80.7754 30.9837L79.3942 34.0882C78.3553 37.2661 80.0909 40.6884 83.281 41.7273L89.6489 43.7441L87.6567 49.8431L81.5943 44.3796L80.0176 48.5475C78.9786 51.7254 81.8754 54.341 85.0533 55.3799L85.7866 55.6244L82.0832 66.9547L84.3443 67.6881C84.6377 67.8958 84.9677 68.067 85.3344 68.1892C88.6834 69.2159 91.519 71.257 93.5479 73.9093Z" fill="#D6D6D6"/>
<path d="M80.5673 91.1069C84.9011 91.1069 88.4142 87.5937 88.4142 83.26C88.4142 78.9263 84.9011 75.4131 80.5673 75.4131C76.2336 75.4131 72.7205 78.9263 72.7205 83.26C72.7205 87.5937 76.2336 91.1069 80.5673 91.1069Z" fill="#D6D6D6"/>
<path d="M80.7748 31.0082C79.7359 34.186 81.4715 37.6083 84.6616 38.6473L90.8218 40.6518L88.8295 46.7508L81.5938 44.4041C80.5548 47.582 82.2904 51.0043 85.4805 52.0432L86.9595 52.5076L83.256 63.838L85.5172 64.5713C85.8105 64.7791 86.1405 64.9502 86.5072 65.0724C93.2052 67.1258 97.862 73.2249 98.0942 80.2284C98.3998 89.2853 91.2862 96.8878 82.2293 97.1933C73.1724 97.4989 65.57 90.3854 65.2644 81.3284C65.1422 77.5517 66.2667 73.9705 68.5156 70.9515C69.6279 69.4726 69.3223 67.3703 67.8434 66.258C66.3644 65.1458 64.2622 65.4513 63.1499 66.9303C60.0209 71.1226 58.3953 76.305 58.5665 81.5485C58.9942 94.2966 69.7134 104.319 82.4616 103.891C95.2097 103.464 105.22 92.7443 104.792 79.9962C104.487 71.0493 99.0598 63.1535 91.0173 59.609L100.123 31.7049C101.162 28.527 99.4265 25.1047 96.2364 24.0658L81.3249 19.2012C80.2859 22.379 82.0215 25.8014 85.2116 26.8403L94.3541 29.8226L92.7041 34.8705" fill="#240259"/>
<path d="M81.5815 88.4047C85.9152 88.4047 89.4284 84.8915 89.4284 80.5578C89.4284 76.2241 85.9152 72.7109 81.5815 72.7109C77.2478 72.7109 73.7346 76.2241 73.7346 80.5578C73.7346 84.8915 77.2478 88.4047 81.5815 88.4047Z" fill="#33048E"/>
<path d="M25.4797 168.121C25.4797 169.453 25.0153 170.554 24.0986 171.458C23.1697 172.35 22.0696 172.815 20.774 172.815C19.4907 172.815 18.3906 172.35 17.4617 171.421C17.3151 171.275 17.1928 171.128 17.0584 170.969C16.3984 170.138 16.0684 169.172 16.0684 168.109C16.0684 166.813 16.5206 165.713 17.4251 164.784C18.3173 163.892 19.3929 163.428 20.6763 163.403H20.774C22.1063 163.403 23.2186 163.856 24.1108 164.748C25.0397 165.677 25.4797 166.801 25.4797 168.121Z" fill="#33048E"/>
<path d="M10.8008 194.57C8.82073 195.206 6.99957 196.086 5.36175 197.21C4.42061 197.846 3.56503 198.591 2.88057 199.276C1.12052 196.672 0.228271 193.433 0.228271 189.571V180.355L4.93396 176.615H9.50519V188.434C9.50519 191.013 9.92076 193.067 10.8008 194.57Z" fill="#240259"/>
<path d="M158.547 164.148V184.389C158.547 186.43 157.814 188.19 156.36 189.669C154.868 191.136 153.133 191.881 151.067 191.881H137.512L135.887 190.048L134.994 189.046H134.823C134.53 189.425 134.212 189.767 133.882 190.048C132.538 191.283 130.912 191.881 128.969 191.881H115.39L113.764 190.048L112.872 189.046H112.676C112.407 189.425 112.065 189.767 111.735 190.048C110.427 191.283 108.789 191.881 106.846 191.881H87.3754L85.6276 190.048L84.7109 189.107H84.5398C84.2464 189.461 83.9653 189.779 83.6231 190.048C82.2786 191.283 80.6285 191.881 78.6852 191.881H41.5652C41.2108 195.634 39.903 198.714 37.6051 201.109C36.9451 200.193 36.2118 199.362 35.3929 198.616C35.0262 198.262 34.6473 197.944 34.1584 197.589C33.0706 196.746 31.8728 196.037 30.5649 195.45C31.8116 193.849 32.435 191.515 32.435 188.447V164.148H41.6875V184.083H75.6662C76.0695 184.083 76.3873 183.973 76.5829 183.729C76.8029 183.521 76.8884 183.252 76.8884 182.886V164.148H86.1654V183.546C86.1654 183.717 86.1776 183.9 86.2265 184.083H104.181C104.756 184.083 105.025 183.815 105.025 183.252V171.066H114.302V180.527C114.302 180.942 114.302 181.517 114.351 182.238C114.351 182.568 114.363 182.959 114.387 183.362V184.083H126.304C126.866 184.083 127.172 183.815 127.172 183.252V167.583H136.425V181.553C136.425 181.761 136.425 182.006 136.437 182.238C136.437 182.776 136.473 183.387 136.486 184.071H148.415C148.977 184.071 149.258 183.802 149.258 183.24V164.148H158.547Z" fill="#240259"/>
<path d="M79.7483 227.058C79.7483 222.059 78.4649 218.014 75.9226 214.909C75.1037 213.931 74.2115 213.088 73.2214 212.379C70.6302 210.546 67.4157 209.629 63.5534 209.629C59.1288 209.629 55.4254 210.961 52.4553 213.626C49.0208 216.706 47.2852 220.825 47.2852 225.934C47.2852 229.649 48.2385 232.815 50.1819 235.419C50.7686 236.25 51.4775 237.02 52.272 237.741C55.242 240.393 59.1533 241.725 63.9445 241.725C69.2735 241.725 73.4414 240.014 76.4482 236.555C77.7804 235.04 78.6727 233.377 79.1494 231.581H69.7747C68.4302 233.83 66.499 234.966 63.9567 234.966C61.8911 234.966 60.2411 234.355 59.031 233.133C58.4932 232.595 58.0777 231.947 57.7721 231.214C57.3565 230.285 57.1488 229.209 57.0999 227.999H79.7605V227.058H79.7483ZM69.958 222.316H57.2099C57.4054 221.033 57.7477 219.981 58.261 219.114C59.3488 217.292 61.1578 216.376 63.6634 216.376C64.5923 216.376 65.4234 216.498 66.1568 216.755C68.308 217.512 69.5669 219.37 69.958 222.316Z" fill="#240259"/>
<path d="M121.403 227.058C121.403 222.059 120.119 218.014 117.577 214.909C116.782 213.931 115.878 213.088 114.876 212.379C112.285 210.546 109.07 209.629 105.208 209.629C100.795 209.629 97.0797 210.961 94.1218 213.626C90.6628 216.706 88.9517 220.825 88.9517 225.934C88.9517 229.649 89.9172 232.815 91.8484 235.419C92.4351 236.25 93.144 237.02 93.9385 237.741C96.8963 240.393 100.795 241.725 105.611 241.725C110.94 241.725 115.096 240.014 118.115 236.555C119.447 235.04 120.339 233.377 120.804 231.581H111.417C110.084 233.83 108.153 234.966 105.611 234.966C103.533 234.966 101.883 234.355 100.685 233.133C100.148 232.595 99.7197 231.947 99.402 231.214C98.9986 230.285 98.7786 229.209 98.7297 227.999H121.39V227.058H121.403ZM111.612 222.316H98.8764C99.0719 221.033 99.402 219.981 99.9275 219.114C101.003 217.292 102.8 216.376 105.33 216.376C106.259 216.376 107.09 216.498 107.811 216.755C109.962 217.512 111.221 219.37 111.612 222.316Z" fill="#240259"/>
<path d="M160.906 213.675C160.136 212.575 159.183 211.695 158.046 211.047C156.42 210.093 154.379 209.629 151.984 209.629C147.767 209.629 144.442 211.255 142.01 214.506V210.448H132.379V240.906H142.352V224.65C142.352 222.829 142.609 221.436 143.122 220.495C144.051 218.686 145.701 217.794 148.048 217.794C148.512 217.794 148.928 217.83 149.307 217.904C150.749 218.148 151.703 218.881 152.216 220.079C152.521 220.861 152.68 222.059 152.68 223.66V240.919H162.703V222.023C162.715 218.258 162.104 215.484 160.906 213.675Z" fill="#240259"/>
<path d="M32.7403 218.491C31.0169 217.415 28.4013 216.376 24.869 215.386C24.3067 215.227 23.72 215.068 23.1089 214.909C18.4521 213.748 15.702 212.942 14.8465 212.514C14.7365 212.453 14.6265 212.392 14.5165 212.318C14.5165 212.318 14.5042 212.318 14.4798 212.306C13.7098 211.793 13.3186 211.047 13.3186 210.057C13.3186 209.336 13.4775 208.713 13.8198 208.199C14.602 206.965 16.3498 206.366 19.0144 206.366C19.2099 206.366 19.3933 206.366 19.5766 206.378C22.0822 206.464 23.83 207.173 24.8078 208.505C25.1256 208.92 25.3456 209.385 25.5168 209.91C25.6634 210.387 25.7368 210.913 25.7734 211.512H36.2359C36.187 209.385 35.8204 207.503 35.0992 205.852C34.7937 205.131 34.427 204.471 33.9992 203.848C33.5225 203.139 32.9481 202.491 32.3003 201.892C32.0314 201.636 31.738 201.416 31.4569 201.208C29.6235 199.766 27.3257 198.788 24.6001 198.299C24.5878 198.287 24.5634 198.287 24.5512 198.262C24.5512 198.262 24.5512 198.262 24.5389 198.262C24.5389 198.262 24.5267 198.274 24.5023 198.274C22.9867 197.969 21.3244 197.822 19.5155 197.822C18.3543 197.822 17.2176 197.883 16.1421 198.018C16.1421 198.018 16.1421 198.018 16.1298 198.018C12.9275 198.421 10.2141 199.399 7.95294 200.939C7.23181 201.44 6.57179 201.978 6.02177 202.552C5.92399 202.65 5.85066 202.724 5.7651 202.821C5.31287 203.286 4.93397 203.775 4.57951 204.312C3.39392 206.146 2.7828 208.297 2.7828 210.742C2.7828 214.225 3.85838 216.877 6.00955 218.723C7.13403 219.676 8.91852 220.63 11.3508 221.571C12.9031 222.157 14.712 222.769 16.8021 223.367C17.621 223.587 18.3666 223.82 19.051 224.027C19.0632 224.027 19.0877 224.04 19.0999 224.04C22.2044 224.956 24.1967 225.69 25.1012 226.215C26.2257 226.851 26.7757 227.841 26.7757 229.173C26.7757 232.033 24.6367 233.463 20.3833 233.463C17.8043 233.463 15.8365 232.925 14.4798 231.813C13.0864 230.713 12.3408 229.026 12.2308 226.777H1.18164C1.2672 231.275 2.74613 234.832 5.64287 237.448C6.66957 238.389 7.83071 239.171 9.13853 239.819L9.15075 239.831C12.0475 241.273 15.6409 241.97 19.9433 241.97C25.1134 241.97 29.2813 240.882 32.4469 238.694C36.077 236.189 37.8982 232.62 37.8982 228.012C37.9104 223.771 36.187 220.605 32.7403 218.491Z" fill="#240259"/>
<path d="M75.3848 199.399C75.3848 200.132 75.2259 200.805 74.9204 201.428C74.9082 201.477 74.8837 201.514 74.8593 201.55V201.563C74.6393 201.966 74.3459 202.345 73.9915 202.699C73.0625 203.628 71.9503 204.093 70.618 204.093C69.3224 204.093 68.2224 203.628 67.3057 202.699C67.1591 202.553 67.0368 202.406 66.9024 202.247C66.2424 201.416 65.9124 200.45 65.9124 199.387C65.9124 198.055 66.3768 196.93 67.3057 196.013C68.198 195.097 69.2736 194.632 70.5325 194.62H70.618C71.657 194.62 72.5736 194.913 73.3559 195.463C73.5759 195.622 73.7837 195.793 73.9915 196.001C74.3459 196.356 74.627 196.735 74.8593 197.15C75.2137 197.835 75.3848 198.58 75.3848 199.399Z" fill="#33048E"/>
<path d="M86.165 199.399C86.165 200.682 85.7006 201.782 84.7961 202.711C83.8672 203.64 82.7305 204.104 81.4227 204.104C80.1271 204.104 79.0393 203.64 78.1348 202.711C77.9881 202.564 77.8659 202.418 77.7559 202.259H77.7192C77.5603 202.051 77.4137 201.831 77.2914 201.586C76.937 200.926 76.7659 200.193 76.7659 199.399C76.7659 198.567 76.937 197.81 77.2914 197.15C77.5114 196.746 77.7926 196.367 78.1226 196.025C79.0148 195.109 80.0782 194.644 81.3249 194.632H81.4227C82.7305 194.632 83.8672 195.096 84.7961 196.025C85.7006 196.942 86.165 198.079 86.165 199.399Z" fill="#33048E"/>
</svg>
