<svg width="230" height="200" viewBox="0 0 230 200" fill="none" xmlns="http://www.w3.org/2000/svg">
<path d="M168.317 199.64L80.6487 188.309C57.0047 185.252 40.3028 163.592 43.3581 139.928L54.6793 52.187C57.7515 28.5062 79.3927 11.7903 103.037 14.8481L190.705 26.1789C214.349 29.2367 231.051 50.896 227.995 74.5598L216.674 162.301C213.619 185.982 191.961 202.698 168.317 199.64Z" fill="#A5A5A5"/>
<path d="M229.014 66.575L228.063 73.9136L219.831 137.702L217.692 154.333C217.692 154.384 217.675 154.452 217.675 154.503C214.535 178.082 192.945 194.696 169.335 191.638L164.667 191.027L153.872 189.634L146.098 188.631L114.697 184.571L86.7251 180.97L81.667 180.307C61.4516 177.691 46.3113 161.468 44.2745 142.017C44.1896 141.168 44.1217 140.318 44.0878 139.469C43.969 136.989 44.0708 134.475 44.3933 131.927L45.2759 125.115L45.6154 122.447L49.7569 90.3067L50.1134 87.6397L51.9974 72.9114H52.0144L52.3539 70.2443L54.6962 52.0335L55.7146 44.1682C56.7669 36.0651 59.9919 28.7774 64.7275 22.8317C64.9991 22.4919 65.2707 22.1352 65.5762 21.8124C68.3598 18.4998 71.6187 15.6459 75.251 13.3356C83.5001 8.03541 93.5824 5.50425 104.055 6.86326L114.697 8.23926L154.11 13.3356L191.74 18.194C198.343 19.0434 204.402 21.3538 209.647 24.7683C209.918 24.9551 210.207 25.125 210.479 25.3289C223.497 34.1795 231.169 49.8761 229.014 66.575Z" fill="white"/>
<path d="M102.545 19.3326C104.072 19.3326 105.634 19.4346 107.162 19.6384L185.494 29.7631C194.931 30.9862 203.333 35.8107 209.138 43.3532C214.943 50.8957 217.472 60.256 216.25 69.6841L206.134 148.082C203.842 165.8 188.685 179.17 170.863 179.17C169.335 179.17 167.774 179.068 166.246 178.864L87.9137 168.739C78.4764 167.516 70.0746 162.692 64.2697 155.149C58.4647 147.607 55.9357 138.246 57.1578 128.818L67.274 50.4201C69.5654 32.7019 84.7227 19.3326 102.545 19.3326ZM102.545 14.2363C82.3803 14.2363 64.8637 29.2195 62.2159 49.7746L52.0997 128.173C49.2142 150.495 64.9656 170.914 87.2517 173.802L165.584 183.926C167.349 184.147 169.115 184.266 170.846 184.266C191.01 184.266 208.527 169.283 211.175 148.728L221.291 70.3296C224.177 48.0078 208.425 27.5886 186.139 24.7007L107.824 14.5761C106.041 14.3552 104.293 14.2363 102.545 14.2363Z" fill="#240259"/>
<path d="M192.487 74.8647L177.381 72.9111L170.032 71.9598L168.979 71.8239C168.283 71.7389 167.57 71.9428 167.027 72.3845L131.689 101.382L130.212 102.589L121.64 109.621L117.312 113.172L114.698 115.312L113.832 116.026L107.043 115.142L107.383 112.56L107.756 109.621L108.028 107.532L108.129 106.734C108.146 106.666 108.146 106.598 108.146 106.53C108.52 102.453 104.158 99.7686 100.712 101.535C100.423 101.671 100.152 101.841 99.8803 102.045L99.1844 102.589L87.0653 111.83L85.6056 112.951L81.4811 116.094L80.7342 116.671C80.4966 116.841 80.2929 117.045 80.1062 117.249C79.6649 117.708 79.3424 118.251 79.1218 118.812C78.5447 120.222 78.6295 121.853 79.4273 123.229C79.5461 123.432 79.6649 123.619 79.8177 123.806L80.5305 124.724L94.6185 142.832C97.4022 146.4 103.19 144.905 103.784 140.386L104.87 131.977L109.538 132.589L114.698 133.251L117.346 133.591C117.685 133.642 118.042 133.608 118.381 133.506C118.721 133.421 119.026 133.251 119.298 133.03L119.841 132.589L123.643 129.463L143.774 112.951L145.25 111.745L172.306 89.542L172.493 89.3891L179.622 90.3065H179.639L190.315 91.6995C191.724 91.8863 193.014 90.901 193.2 89.508L193.523 86.9259L194.711 77.7186C194.898 76.3256 193.896 75.0515 192.487 74.8647ZM185.97 125.352L184.12 125.114L176.787 124.163L168.148 123.059L158.49 109.706L150.071 116.603L149.29 117.249L146.999 119.135L145.624 120.256L147.728 123.161L148.866 124.724L158.541 138.11C158.744 138.382 158.999 138.619 159.304 138.806C159.61 138.993 159.949 139.095 160.289 139.146L176.872 141.286L183.797 142.187C184.255 142.255 184.714 142.187 185.121 142C185.528 141.83 185.902 141.558 186.173 141.202C186.445 140.862 186.615 140.454 186.683 139.995L187.005 137.413L188.193 128.206C188.38 126.813 187.378 125.539 185.97 125.352ZM139.649 83.7152L137.392 80.5895L136.271 79.0436L127.785 67.3221C127.581 67.0333 127.326 66.7955 127.021 66.6087C126.715 66.4388 126.376 66.3199 126.019 66.2689L114.698 64.808L113.561 64.6551L113.866 62.2768L113.9 62.0729L114.647 56.2462C114.664 56.1782 114.664 56.1103 114.664 56.0423C114.681 55.9404 114.681 55.8555 114.681 55.7705C114.698 55.7026 114.698 55.6346 114.698 55.5667C114.698 55.04 114.613 54.5304 114.46 54.0717C113.459 50.8781 109.368 49.2812 106.398 51.5576L87.252 66.184C86.5052 66.7615 85.9621 67.509 85.6396 68.3244C84.9776 69.9382 85.1813 71.8409 86.3355 73.3188L90.8504 79.1286L91.9876 80.5895L101.136 92.345C101.255 92.4979 101.374 92.6338 101.493 92.7527C101.934 93.2114 102.409 93.5681 102.936 93.8059C105.872 95.2499 109.81 93.5851 110.302 89.8988L111.269 82.3732L111.388 81.4899L114.698 81.9146L118.11 82.3732H118.178L124.899 91.6485L126.461 93.8059L127.836 95.7085L140.701 85.1592L139.649 83.7152Z" fill="#D6D6D6"/>
<path d="M192.827 72.2831L177.041 70.2446L169.692 69.2933L169.318 69.2423C168.606 69.1574 167.893 69.3613 167.349 69.8029L130.229 100.262L128.667 101.536L121.368 107.533L114.698 113.003L114.155 113.444L112.084 113.172L107.382 112.561H107.365L107.739 109.605L108.01 107.533L108.146 106.53L108.452 104.152C109.029 99.6503 103.818 96.7114 100.219 99.4634L99.1671 100.262L97.7074 101.383L85.6054 110.624L84.1456 111.746L81.0734 114.09C80.717 114.362 80.4115 114.667 80.1569 114.99C79.7665 115.483 79.4779 116.026 79.3082 116.604C79.0875 117.317 79.0197 118.065 79.1215 118.812C79.2403 119.662 79.5798 120.494 80.1569 121.225L80.5303 121.7L81.6675 123.161L94.9577 140.251C97.7414 143.835 103.529 142.323 104.106 137.805L105.193 129.396L105.736 129.464L109.097 129.905L114.698 130.619L117.668 131.01C118.025 131.061 118.381 131.027 118.721 130.925C119.043 130.84 119.366 130.67 119.637 130.449L120.316 129.905L142.314 111.847L143.79 110.624L172.034 87.4701L172.832 86.8076L179.282 87.64L190.654 89.1179C192.063 89.3048 193.353 88.3195 193.523 86.9265L194.711 77.7192L195.05 75.1371C195.22 73.7441 194.235 72.47 192.827 72.2831ZM186.309 122.771L183.78 122.448L176.43 121.496L168.487 120.477L158.812 107.125L149.239 114.99L147.898 116.094L145.946 117.691L146.998 119.135L148.865 121.717L149.952 123.229L158.863 135.528C159.083 135.8 159.338 136.038 159.644 136.225C159.949 136.412 160.272 136.514 160.628 136.565L177.279 138.722L184.136 139.605C184.544 139.656 184.934 139.622 185.307 139.469C185.528 139.401 185.749 139.3 185.935 139.164C186.513 138.773 186.92 138.144 187.005 137.414L188.193 128.207L188.532 125.624C188.702 124.231 187.718 122.957 186.309 122.771ZM138.546 79.1292L137.408 77.5663L128.124 64.7406C127.92 64.4518 127.649 64.214 127.343 64.0271C127.038 63.8572 126.715 63.7383 126.359 63.6874L115.53 62.2944L114.698 62.1755L113.9 62.0735H113.883L114.664 56.0429L114.698 55.8391L114.715 55.6862L114.902 54.1913L114.969 53.6646C115.088 52.7813 114.969 51.9659 114.698 51.2354C113.561 48.2286 109.623 46.7676 106.737 48.976L87.5912 63.6024C86.0806 64.7576 85.4017 66.5753 85.6393 68.325C85.7581 69.1744 86.0976 70.0238 86.6747 70.7543L91.9874 77.5663L93.1246 79.0273L101.476 89.7635C101.866 90.2561 102.307 90.6638 102.799 90.9526C103.326 91.3093 103.903 91.5302 104.497 91.6491C107.213 92.1927 110.217 90.5109 110.624 87.3172L111.269 82.3738L111.609 79.6898L111.711 78.9083L114.698 79.2991L117.77 79.6898L118.5 79.7917L126.596 90.9526L127.903 92.7533L128.175 93.127L139.649 83.7158L141.041 82.5777L138.546 79.1292Z" fill="#240259"/>
<path d="M61.0768 199.64L148.745 188.309C172.389 185.251 189.091 163.592 186.035 139.928L174.714 52.1866C171.659 28.5228 150.018 11.8069 126.374 14.8647L38.7057 26.1955C15.0447 29.2533 -1.65713 50.9126 1.39809 74.5764L12.7364 162.318C15.7916 185.982 37.4327 202.697 61.0768 199.64Z" fill="#7F7F7F"/>
<path d="M185.305 139.469C185.271 140.318 185.204 141.168 185.119 142C183.082 161.468 167.942 177.691 147.709 180.307L142.651 180.97L114.696 184.571L83.278 188.631L75.5042 189.634L63.4021 191.197L60.0413 191.638C36.3973 194.696 14.7562 177.997 11.7009 154.333L2.6541 84.2931L1.39806 74.5762L0.362681 66.575C-1.55532 51.7787 4.26658 37.7469 14.6883 28.5905C14.9259 28.3867 15.1466 28.1998 15.3842 27.9959C21.4946 22.8317 29.1327 19.2982 37.6534 18.194L75.2496 13.3356L114.696 8.23926L125.321 6.86326C135.794 5.50425 145.859 8.03541 154.108 13.3356C157.741 15.6289 161.016 18.4998 163.817 21.8124C164.106 22.1352 164.394 22.4919 164.666 22.8317C169.401 28.7774 172.626 36.0651 173.679 44.1682L177.039 70.2443L177.379 72.9114L179.28 87.6397L179.636 90.3067L182.861 115.296L183.778 122.447L184.117 125.115L185 131.927C185.322 134.475 185.424 136.989 185.305 139.469Z" fill="white"/>
<path d="M126.849 19.3326C144.671 19.3326 159.828 32.7019 162.119 50.4201L172.236 128.818C174.748 148.32 160.948 166.225 141.48 168.739L63.1472 178.881C61.6195 179.085 60.058 179.187 58.5304 179.187C40.7083 179.187 25.551 165.817 23.2595 148.099L13.1434 69.6841C11.9213 60.239 14.4503 50.8788 20.2552 43.3532C26.0602 35.8277 34.462 30.9862 43.8993 29.7631L122.232 19.6384C123.759 19.4346 125.321 19.3326 126.849 19.3326ZM126.849 14.2363C125.117 14.2363 123.352 14.3552 121.587 14.5761L43.2543 24.7007C20.9512 27.5886 5.19979 48.0248 8.08528 70.3466L18.2015 148.745C20.8493 169.283 38.3659 184.283 58.5304 184.283C60.2617 184.283 62.0269 184.164 63.7922 183.943L142.125 173.819C164.428 170.931 180.162 150.512 177.277 128.19L167.177 49.7746C164.513 29.2195 147.013 14.2363 126.849 14.2363Z" fill="#240259"/>
<path d="M150.256 118.778C150.035 118.218 149.713 117.708 149.288 117.249C149.102 117.045 148.881 116.842 148.643 116.672L147.897 116.094L143.772 112.951L142.312 111.847L130.21 102.589L129.497 102.045C129.226 101.841 128.954 101.672 128.666 101.536C125.169 99.7349 120.739 102.555 121.265 106.734L121.367 107.532L121.639 109.622L122.012 112.561L122.351 115.143L115.562 116.026L114.696 115.313L112.083 113.172L107.754 109.622L107.737 109.605L99.1827 102.589L97.706 101.383L62.3673 72.3848C61.8241 71.9431 61.1112 71.7392 60.3984 71.8242L59.346 71.9601L52.0135 72.9114H51.9965L36.8901 74.865C35.5153 75.0518 34.5478 76.258 34.6666 77.6L35.8547 86.9262C35.8547 86.9432 35.8547 86.9602 35.8717 86.9772L36.1942 89.5084C36.3809 90.9013 37.6539 91.8866 39.0627 91.6998L49.756 90.3068L56.8848 89.3894L57.0885 89.5593L84.1442 111.745L85.6039 112.951L105.734 129.463L109.537 132.589L110.08 133.031C110.351 133.252 110.674 133.422 111.013 133.506C111.353 133.608 111.709 133.642 112.049 133.591L114.696 133.252L119.839 132.589L124.524 131.978L125.271 137.804C125.271 137.855 125.288 137.906 125.305 137.957L125.61 140.386C126.187 144.905 131.992 146.4 134.759 142.833L148.864 124.724L149.577 123.806C149.713 123.62 149.848 123.433 149.95 123.229C150.765 121.853 150.85 120.205 150.256 118.778ZM82.396 119.118L80.1045 117.249L79.3068 116.604L70.9049 109.707L61.2301 123.059L52.6075 124.163L45.275 125.115H45.258L43.4079 125.352C42.0331 125.539 41.0656 126.745 41.1844 128.087L42.3725 137.414C42.3725 137.431 42.3725 137.448 42.3895 137.465L42.712 139.996C42.7799 140.454 42.9496 140.862 43.2212 141.202C43.4928 141.559 43.8492 141.847 44.2736 142.017C44.6809 142.187 45.1222 142.255 45.5805 142.187L52.5227 141.287L69.0888 139.146C69.4452 139.095 69.7847 138.993 70.0732 138.807C70.3787 138.62 70.6503 138.382 70.854 138.11L80.5289 124.724L81.6661 123.161L83.7708 120.256L82.396 119.118ZM143.738 68.2908C143.416 67.4753 142.872 66.7619 142.126 66.1843L122.979 51.5579C119.975 49.2476 115.834 50.9293 114.9 54.191C114.764 54.6157 114.696 55.0743 114.696 55.567C114.696 55.601 114.696 55.6519 114.713 55.6859C114.696 55.8728 114.713 56.0426 114.747 56.2465L115.494 62.0733L115.528 62.2941L115.834 64.6554L114.696 64.8083L103.358 66.2692C103.019 66.3202 102.679 66.4391 102.374 66.609C102.068 66.7958 101.814 67.0337 101.61 67.3225L93.1232 79.027L91.986 80.5898L89.7285 83.6986L88.6761 85.1595L101.559 95.7089L102.934 93.8062L104.495 91.6488L111.217 82.3735H111.268L114.696 81.9149L118.006 81.4902L118.125 82.3735L118.753 87.317C118.753 87.3679 118.77 87.4189 118.787 87.4698L119.093 89.8991C119.568 93.5854 123.523 95.2672 126.459 93.8062C126.985 93.5514 127.46 93.2117 127.902 92.753C128.004 92.6341 128.122 92.4982 128.241 92.3453L137.39 80.5898L138.544 79.1289L143.059 73.3191C144.213 71.8242 144.417 69.9046 143.738 68.2908Z" fill="#D6D6D6"/>
<path d="M150.069 116.604C149.899 116.026 149.611 115.483 149.237 114.99C148.983 114.667 148.677 114.362 148.321 114.09L145.249 111.746L143.789 110.624L131.687 101.383L130.227 100.262L129.175 99.4634C125.576 96.7114 120.349 99.6503 120.926 104.152L121.265 106.734L121.367 107.533L121.639 109.622L122.012 112.561L117.31 113.172L115.223 113.444L114.697 113.003L108.026 107.533H108.009L100.71 101.536L99.1658 100.262L62.0279 69.8029C61.4847 69.3613 60.7718 69.1574 60.0759 69.2423L59.7025 69.2933L52.353 70.2446L36.5677 72.2831C35.1589 72.47 34.1575 73.7441 34.3442 75.1371L34.6667 77.6003L35.8548 86.9265C35.8548 86.9435 35.8548 86.9605 35.8718 86.9775C36.0755 88.3365 37.3485 89.3048 38.7403 89.1179L50.0955 87.64H50.1125L56.5624 86.8076L57.3602 87.4531L85.604 110.624L87.0637 111.83L109.095 129.905L109.757 130.449C110.029 130.67 110.334 130.84 110.674 130.925C111.013 131.027 111.37 131.061 111.709 131.01L114.697 130.619L120.315 129.905L123.642 129.464L124.185 129.396L124.524 131.978L125.271 137.805C125.271 137.856 125.288 137.907 125.305 137.958C126.001 142.357 131.687 143.801 134.437 140.251L147.727 123.161L148.864 121.717L149.237 121.225C149.815 120.477 150.154 119.645 150.256 118.778C150.358 118.048 150.307 117.3 150.069 116.604ZM81.4795 116.094L80.1555 114.99L70.5655 107.125L60.9076 120.477L52.9641 121.496L45.6146 122.448L43.0855 122.771C41.6767 122.957 40.6753 124.231 40.862 125.624L41.1845 128.088L42.3726 137.414C42.3726 137.431 42.3726 137.448 42.3896 137.465C42.4914 138.178 42.8988 138.773 43.4589 139.164C43.6456 139.3 43.8663 139.401 44.0869 139.469C44.4604 139.622 44.8507 139.656 45.2581 139.605L52.1154 138.722L68.7663 136.565C69.1058 136.514 69.4453 136.412 69.7508 136.225C70.0563 136.038 70.3109 135.8 70.5146 135.528L79.4257 123.229L80.5289 121.7L82.396 119.118L83.4314 117.691L81.4795 116.094ZM141.803 63.6024L122.657 48.976C119.772 46.7676 115.817 48.2286 114.697 51.2354C114.408 51.9659 114.289 52.7813 114.408 53.6646L114.459 54.0723L114.68 55.7711L114.697 55.8391L114.747 56.2468L115.494 62.0735L114.697 62.1755L113.865 62.2774L103.036 63.6874C102.679 63.7383 102.34 63.8572 102.034 64.0271C101.729 64.214 101.474 64.4518 101.271 64.7406L91.986 77.5663L90.8488 79.1292L88.3537 82.5777L89.7286 83.6989L101.22 93.127L101.491 92.7533L102.798 90.9526L110.877 79.7917L111.607 79.6898L114.697 79.2991L117.667 78.9083L117.769 79.6898L118.006 81.4905L118.108 82.3738L118.753 87.3172C118.753 87.3682 118.77 87.4192 118.787 87.4701C119.279 90.5619 122.233 92.1927 124.898 91.6491C125.492 91.5302 126.069 91.3093 126.595 90.9526C127.087 90.6638 127.528 90.2561 127.919 89.7635L136.27 79.0442L137.407 77.5663L142.72 70.7543C143.297 70.0068 143.636 69.1574 143.738 68.291C143.976 66.5583 143.297 64.7406 141.803 63.6024Z" fill="#240259"/>
<path opacity="0.2" d="M213.498 43.1829V135.12C213.498 163.269 192.061 186.508 164.666 189.328C162.816 189.532 160.932 189.634 159.031 189.634H67.1872C65.9142 189.634 64.6581 189.583 63.4021 189.498C35.1243 187.561 12.7024 163.897 12.7024 135.12V43.1829C12.7024 41.2633 12.8042 39.3777 13.0079 37.509C13.3134 34.4513 13.8905 31.4784 14.6883 28.5905C14.9259 28.3867 15.1466 28.1998 15.3842 27.9959C21.4946 22.8317 29.1327 19.2982 37.6534 18.194L75.2496 13.3356C83.4987 8.03541 93.5809 5.50425 104.054 6.86326L114.696 8.23926L125.321 6.86326C135.794 5.50425 145.859 8.03541 154.108 13.3356L191.738 18.194C198.341 19.0434 204.401 21.3538 209.645 24.7683C209.917 24.9551 210.206 25.125 210.477 25.3289C211.479 28.1658 212.242 31.1047 212.735 34.1115C213.006 35.6234 213.193 37.1693 213.312 38.7321C213.43 40.1931 213.498 41.688 213.498 43.1829Z" fill="black"/>
<path d="M159.03 181.7H67.187C42.4227 181.7 22.3262 161.604 22.3262 136.802V44.8984C22.3262 20.0964 42.4227 0 67.187 0H159.03C183.795 0 203.891 20.0964 203.891 44.8984V136.819C203.891 161.604 183.812 181.7 159.03 181.7Z" fill="white"/>
<path d="M159.03 190.076H67.187C42.4227 190.076 22.3262 169.979 22.3262 145.177V53.2568C22.3262 28.4718 42.4058 8.3584 67.187 8.3584H159.03C183.795 8.3584 203.891 28.4548 203.891 53.2568V145.177C203.891 169.979 183.812 190.076 159.03 190.076Z" fill="#A5A5A5"/>
<path d="M159.03 181.7H67.187C42.4227 181.7 22.3262 161.604 22.3262 136.802V44.8984C22.3262 20.0964 42.4227 0 67.187 0H159.03C183.795 0 203.891 20.0964 203.891 44.8984V136.819C203.891 161.604 183.812 181.7 159.03 181.7Z" fill="white"/>
<path d="M154.142 12.5533C174.663 12.5533 191.348 29.2522 191.348 49.7903V131.926C191.348 152.464 174.663 169.163 154.142 169.163H72.0757C51.5548 169.163 34.8699 152.464 34.8699 131.926V49.7903C34.8699 29.2522 51.5548 12.5533 72.0757 12.5533H154.142ZM154.142 7.45703H72.0757C48.7202 7.45703 29.7778 26.4153 29.7778 49.7903V131.926C29.7778 155.301 48.7202 174.259 72.0757 174.259H154.142C177.498 174.259 196.44 155.301 196.44 131.926V49.7903C196.44 26.3983 177.498 7.45703 154.142 7.45703Z" fill="#240259"/>
<path d="M108.874 39.8867C111.691 39.8867 114.509 39.8867 117.344 39.8867C117.904 40.0226 118.447 40.2265 119.007 40.2944C142.328 43.4541 157.927 56.2459 166.176 78.2109C167.806 82.5768 168.281 87.1804 169.13 91.7161C169.13 94.5361 169.13 97.356 169.13 100.193C168.977 100.839 168.79 101.467 168.705 102.113C165.48 125.233 152.818 140.777 131.092 149.016C126.662 150.697 121.96 151.156 117.344 152.022C114.696 152.022 112.031 152.022 109.383 152.022C108.738 151.886 108.11 151.683 107.465 151.615C85.8069 149.627 66.7626 134.355 60.0242 113.715C58.5814 109.298 57.9704 104.729 57.1047 100.193C57.1047 97.5429 57.1047 94.8758 57.1047 92.2258C57.2405 91.5123 57.4272 90.7818 57.5291 90.0513C60.6692 66.9481 73.2125 51.3024 94.9216 42.9615C99.4026 41.2287 104.172 40.7191 108.874 39.8867ZM93.9541 84.6493C93.1054 76.2573 96.7717 70.2437 104.834 66.8971C105.768 66.5064 106.481 65.8949 106.667 65.0115C107.312 61.9028 109.434 61.9877 111.81 62.4973C117.496 63.7374 122.605 66.2346 127.12 69.87C130.956 72.9617 132.942 77.0218 132.874 81.9992C132.84 84.4964 132.789 86.9766 132.772 89.4738C132.772 90.1193 132.518 90.9007 133.146 91.3424C135.997 93.33 135.132 95.9461 133.994 98.2394C131.448 103.37 128.614 108.364 124.88 112.713C123.607 114.208 123.844 115.057 124.88 116.28C127.409 119.219 130.719 120.85 134.283 122.073C138.492 123.517 143.007 124.231 146.843 126.609C148.609 127.713 149.457 127.356 150.595 125.844C159.166 114.463 162.561 101.824 160.235 87.6901C155.143 56.9254 121.095 39.0883 92.9187 52.4576C73.8066 61.529 62.9097 81.3876 65.6424 102.469C66.7796 111.286 70.2761 119.202 75.9113 126.116C76.3866 126.694 76.726 128.07 77.9312 127.305C82.7177 124.299 88.3189 123.5 93.4788 121.496C96.4322 120.34 99.148 118.795 101.27 116.331C102.475 114.938 102.678 113.936 101.287 112.322C97.6713 108.092 94.9725 103.2 92.2737 98.3413C91.0347 96.1159 90.6952 93.6357 92.766 91.6991C93.7504 90.7818 94.0729 90.0004 93.9371 88.7433C93.8523 87.4862 93.9541 86.2291 93.9541 84.6493Z" fill="#D6D6D6"/>
<path d="M108.874 34.791C111.691 34.791 114.509 34.791 117.344 34.791C117.904 34.9269 118.447 35.1308 119.007 35.1987C142.328 38.3584 157.927 51.1502 166.176 73.1152C167.806 77.4811 168.281 82.0847 169.13 86.6204C169.13 89.4404 169.13 92.2603 169.13 95.0973C168.977 95.7428 168.79 96.3714 168.705 97.0169C165.48 120.137 152.818 135.681 131.092 143.92C126.662 145.602 121.96 146.06 117.344 146.927C114.696 146.927 112.031 146.927 109.383 146.927C108.738 146.791 108.11 146.587 107.465 146.519C85.8069 144.531 66.7626 129.26 60.0242 108.619C58.5814 104.203 57.9704 99.633 57.1047 95.0973C57.1047 92.4472 57.1047 89.7801 57.1047 87.1301C57.2405 86.4166 57.4272 85.6861 57.5291 84.9556C60.6692 61.8524 73.2125 46.2067 94.9216 37.8658C99.4026 36.133 104.172 35.6234 108.874 34.791ZM93.9541 79.5536C93.1054 71.1616 96.7717 65.148 104.834 61.8014C105.768 61.4107 106.481 60.7992 106.667 59.9158C107.312 56.8071 109.434 56.892 111.81 57.4016C117.496 58.6417 122.605 61.1389 127.12 64.7743C130.956 67.866 132.942 71.9261 132.874 76.9035C132.84 79.4007 132.789 81.8809 132.772 84.3781C132.772 85.0236 132.518 85.805 133.146 86.2467C135.997 88.2343 135.132 90.8504 133.994 93.1437C131.448 98.274 128.614 103.268 124.88 107.617C123.607 109.112 123.844 109.962 124.88 111.185C127.409 114.123 130.719 115.754 134.283 116.977C138.492 118.421 143.007 119.135 146.843 121.513C148.609 122.617 149.457 122.261 150.595 120.749C159.166 109.367 162.561 96.7281 160.235 82.5943C155.143 51.8297 121.095 33.9926 92.9187 47.3619C73.8066 56.4333 62.9097 76.2919 65.6424 97.3736C66.7796 106.19 70.2761 114.106 75.9113 121.02C76.3866 121.598 76.726 122.974 77.9312 122.21C82.7177 119.203 88.3189 118.404 93.4788 116.4C96.4322 115.245 99.148 113.699 101.27 111.236C102.475 109.843 102.678 108.84 101.287 107.226C97.6713 102.997 94.9725 98.1041 92.2737 93.2456C91.0347 91.0202 90.6952 88.54 92.766 86.6034C93.7504 85.6861 94.0729 84.9047 93.9371 83.6476C93.8523 82.3905 93.9541 81.1334 93.9541 79.5536Z" fill="#240259"/>
</svg>
