<svg width="158" height="234" viewBox="0 0 158 234" fill="none" xmlns="http://www.w3.org/2000/svg">
<path d="M109.333 127.284H47.7826C31.1777 127.284 17.7283 113.823 17.7283 97.2299V35.6676C17.7283 19.0627 31.1895 5.61328 47.7826 5.61328H109.333C125.938 5.61328 139.387 19.0745 139.387 35.6676V97.2181C139.387 113.823 125.938 127.284 109.333 127.284Z" fill="#A5A5A5"/>
<path d="M109.333 121.671H47.7826C31.1777 121.671 17.7283 108.21 17.7283 91.6167V30.0543C17.7165 13.4612 31.1777 0 47.7826 0H109.333C125.938 0 139.387 13.4612 139.387 30.0543V91.6049C139.387 108.21 125.938 121.671 109.333 121.671Z" fill="white"/>
<path d="M106.059 8.53284C119.733 8.53284 130.866 19.654 130.866 33.3398V88.3311C130.866 102.005 119.745 113.138 106.059 113.138H51.0559C37.3819 113.138 26.2489 102.017 26.2489 88.3311V33.3398C26.2489 19.6658 37.3701 8.53284 51.0559 8.53284H106.059ZM106.059 4.9873H51.0559C35.3964 4.9873 22.7034 17.6803 22.7034 33.3398V88.3311C22.7034 103.991 35.3964 116.684 51.0559 116.684H106.047C121.707 116.684 134.4 103.991 134.4 88.3311V33.3398C134.4 17.6803 121.707 4.9873 106.059 4.9873Z" fill="#240259"/>
<path d="M90.2327 71.4658C92.1945 74.0304 93.3764 77.1978 93.4946 80.5897C93.79 89.3471 86.9117 96.6982 78.1542 96.9937C69.3967 97.2891 62.0457 90.4108 61.7502 81.6533C61.632 78.0014 62.7193 74.5386 64.8939 71.6195C65.9694 70.1894 65.6739 68.1567 64.2439 67.0812C62.8139 66.0057 60.7811 66.3012 59.7056 67.7312C56.6801 71.7849 55.1082 76.7959 55.2737 81.8661C55.6873 94.1927 66.0521 103.872 78.3788 103.458C90.6936 103.057 100.385 92.6918 99.9711 80.3651C99.6756 71.714 94.4282 64.0793 86.6517 60.6519L95.4564 33.6704C96.461 30.5976 94.7828 27.2884 91.6982 26.2839L78.4142 18.5664L77.2797 21.5801C76.2751 24.6529 77.9533 27.9621 81.0379 28.9666L89.8781 31.8504L88.2826 36.7314L77.8824 29.9594L76.5469 32.9613C75.5423 36.0341 77.2206 39.3433 80.3052 40.3478L86.4626 42.2979L84.5362 48.1953L78.6742 42.9124L77.1497 46.9425C76.1451 50.0153 78.9461 52.5445 82.0189 53.549L82.728 53.7854L79.147 64.7411L81.3334 65.4502C81.617 65.6511 81.9361 65.8166 82.2907 65.9348C85.5289 66.9275 88.2708 68.9012 90.2327 71.4658Z" fill="#D6D6D6"/>
<path d="M77.6812 88.0948C81.8716 88.0948 85.2686 84.6978 85.2686 80.5074C85.2686 76.3169 81.8716 72.9199 77.6812 72.9199C73.4908 72.9199 70.0938 76.3169 70.0938 80.5074C70.0938 84.6978 73.4908 88.0948 77.6812 88.0948Z" fill="#D6D6D6"/>
<path d="M77.8831 29.983C76.8785 33.0558 78.5567 36.365 81.6414 37.3696L87.5979 39.3078L85.6714 45.2052L78.6749 42.9361C77.6703 46.0089 79.3486 49.318 82.4332 50.3226L83.8632 50.7717L80.2822 61.7274L82.4686 62.4365C82.7523 62.6374 83.0714 62.8029 83.4259 62.9211C89.9024 64.9066 94.4053 70.804 94.6298 77.576C94.9253 86.3334 88.0469 93.6845 79.2895 93.98C70.532 94.2754 63.1809 87.3971 62.8855 78.6396C62.7673 74.9877 63.8546 71.5249 66.0292 68.6058C67.1046 67.1757 66.8092 65.1429 65.3792 64.0675C63.9491 62.992 61.9163 63.2874 60.8409 64.7175C57.8153 68.7712 56.2435 73.7822 56.4089 78.8524C56.8226 91.179 67.1874 100.87 79.514 100.457C91.8407 100.043 101.52 89.6781 101.106 77.3514C100.811 68.7003 95.5635 61.0656 87.7869 57.6382L96.5917 30.6567C97.5963 27.5839 95.918 24.2747 92.8334 23.2702L78.4149 18.5664C77.4103 21.6392 79.0886 24.9484 82.1732 25.9529L91.0134 28.8366L89.4179 33.7177" fill="#240259"/>
<path d="M78.663 85.4825C82.8534 85.4825 86.2505 82.0855 86.2505 77.8951C86.2505 73.7046 82.8534 70.3076 78.663 70.3076C74.4726 70.3076 71.0756 73.7046 71.0756 77.8951C71.0756 82.0855 74.4726 85.4825 78.663 85.4825Z" fill="#33048E"/>
<path d="M24.4174 162.563C24.4174 163.851 23.9683 164.915 23.0819 165.789C22.1837 166.652 21.12 167.101 19.8672 167.101C18.6263 167.101 17.5626 166.652 16.6644 165.754C16.5226 165.612 16.4044 165.47 16.2744 165.317C15.6362 164.513 15.3171 163.579 15.3171 162.551C15.3171 161.298 15.7544 160.235 16.629 159.336C17.4917 158.474 18.5318 158.025 19.7727 158.001H19.8672C21.1555 158.001 22.2309 158.438 23.0937 159.301C23.9919 160.199 24.4174 161.287 24.4174 162.563Z" fill="#C4D0FB"/>
<path d="M10.223 188.138C8.30838 188.752 6.54743 189.603 4.96375 190.69C4.05373 191.305 3.22644 192.026 2.56461 192.688C0.862747 190.17 0 187.039 0 183.304V174.393L4.55011 170.776H8.97021V182.205C8.97021 184.699 9.37204 186.684 10.223 188.138Z" fill="white"/>
<path d="M153.085 158.722V178.293C153.085 180.267 152.376 181.969 150.969 183.399C149.527 184.817 147.849 185.538 145.852 185.538H132.745L131.173 183.765L130.311 182.796H130.145C129.862 183.162 129.554 183.493 129.235 183.765C127.935 184.959 126.363 185.538 124.484 185.538H111.354L109.782 183.765L108.919 182.796H108.73C108.47 183.162 108.139 183.493 107.82 183.765C106.556 184.959 104.972 185.538 103.093 185.538H84.2659L82.5759 183.765L81.6895 182.855H81.5241C81.2404 183.198 80.9686 183.505 80.6377 183.765C79.3376 184.959 77.7421 185.538 75.863 185.538H39.9704C39.6276 189.166 38.363 192.144 36.1412 194.461C35.503 193.574 34.7939 192.771 34.002 192.05C33.6475 191.707 33.2811 191.4 32.8084 191.057C31.7565 190.242 30.5983 189.556 29.3337 188.989C30.5392 187.441 31.142 185.183 31.142 182.217V158.722H40.0885V177.998H72.9439C73.3339 177.998 73.6411 177.891 73.8302 177.655C74.043 177.454 74.1257 177.194 74.1257 176.839V158.722H83.0959V177.478C83.0959 177.643 83.1077 177.82 83.155 177.998H100.516C101.072 177.998 101.332 177.738 101.332 177.194V165.411H110.302V174.558C110.302 174.96 110.302 175.516 110.349 176.213C110.349 176.532 110.361 176.91 110.385 177.3V177.998H121.908C122.451 177.998 122.747 177.738 122.747 177.194V162.043H131.693V175.551C131.693 175.752 131.693 175.988 131.705 176.213C131.705 176.733 131.741 177.324 131.753 177.986H143.287C143.831 177.986 144.103 177.726 144.103 177.182V158.722H153.085Z" fill="white"/>
<path d="M76.8909 219.551C76.8909 214.718 75.65 210.806 73.1917 207.804C72.3999 206.858 71.5372 206.043 70.5799 205.357C68.0744 203.585 64.9661 202.698 61.2315 202.698C56.9532 202.698 53.3722 203.986 50.5003 206.563C47.1793 209.541 45.5011 213.524 45.5011 218.464C45.5011 222.057 46.4229 225.118 48.3021 227.635C48.8694 228.439 49.5548 229.183 50.323 229.881C53.1949 232.445 56.9768 233.734 61.6097 233.734C66.7625 233.734 70.7926 232.079 73.6999 228.734C74.9881 227.269 75.8509 225.662 76.3118 223.924H67.2471C65.947 226.099 64.0797 227.198 61.6215 227.198C59.6242 227.198 58.0287 226.607 56.8586 225.425C56.3386 224.905 55.9368 224.279 55.6413 223.57C55.2395 222.671 55.0386 221.631 54.9913 220.461H76.9027V219.551H76.8909ZM67.4243 214.966H55.0977C55.2868 213.725 55.6177 212.708 56.1141 211.869C57.1659 210.108 58.915 209.222 61.3378 209.222C62.236 209.222 63.0397 209.34 63.7488 209.588C65.8288 210.321 67.0461 212.118 67.4243 214.966Z" fill="white"/>
<path d="M117.168 219.551C117.168 214.718 115.927 210.806 113.469 207.804C112.701 206.858 111.826 206.043 110.857 205.357C108.351 203.585 105.243 202.698 101.509 202.698C97.2421 202.698 93.6493 203.986 90.7893 206.563C87.4446 209.541 85.79 213.524 85.79 218.464C85.79 222.057 86.7237 225.118 88.591 227.635C89.1583 228.439 89.8438 229.183 90.612 229.881C93.472 232.445 97.2421 233.734 101.899 233.734C107.051 233.734 111.07 232.079 113.989 228.734C115.277 227.269 116.14 225.662 116.589 223.924H107.512C106.224 226.099 104.357 227.198 101.899 227.198C99.8895 227.198 98.294 226.607 97.1358 225.425C96.6158 224.905 96.2021 224.279 95.8948 223.57C95.5048 222.671 95.2921 221.631 95.2448 220.461H117.156V219.551H117.168ZM107.701 214.966H95.3866C95.5757 213.725 95.8948 212.708 96.403 211.869C97.443 210.108 99.1804 209.222 101.627 209.222C102.525 209.222 103.329 209.34 104.026 209.588C106.106 210.321 107.323 212.118 107.701 214.966Z" fill="white"/>
<path d="M155.366 206.61C154.621 205.547 153.699 204.696 152.6 204.069C151.028 203.147 149.055 202.698 146.738 202.698C142.661 202.698 139.446 204.27 137.094 207.414V203.49H127.781V232.942H137.425V217.223C137.425 215.462 137.673 214.115 138.17 213.205C139.068 211.456 140.663 210.593 142.933 210.593C143.382 210.593 143.784 210.628 144.15 210.699C145.545 210.936 146.466 211.645 146.963 212.803C147.258 213.559 147.412 214.718 147.412 216.266V232.954H157.103V214.682C157.115 211.042 156.524 208.359 155.366 206.61Z" fill="white"/>
<path d="M31.4379 211.267C29.7715 210.227 27.2423 209.223 23.8268 208.265C23.2831 208.112 22.7158 207.958 22.1249 207.804C17.6221 206.682 14.9629 205.902 14.1356 205.488C14.0293 205.429 13.9229 205.37 13.8165 205.299C13.8165 205.299 13.8047 205.299 13.7811 205.287C13.0365 204.791 12.6583 204.07 12.6583 203.112C12.6583 202.415 12.812 201.812 13.1429 201.316C13.8993 200.122 15.5893 199.543 18.1657 199.543C18.3548 199.543 18.5321 199.543 18.7094 199.555C21.1322 199.638 22.8222 200.323 23.7677 201.612C24.075 202.013 24.2877 202.462 24.4532 202.971C24.595 203.432 24.6659 203.94 24.7013 204.519H34.8179C34.7707 202.462 34.4161 200.642 33.7188 199.047C33.4234 198.35 33.0688 197.711 32.6552 197.109C32.1942 196.423 31.6388 195.797 31.0124 195.218C30.7524 194.97 30.4688 194.757 30.1969 194.556C28.4242 193.161 26.2023 192.216 23.5668 191.743C23.555 191.731 23.5313 191.731 23.5195 191.708C23.5195 191.708 23.5195 191.708 23.5077 191.708C23.5077 191.708 23.4959 191.72 23.4722 191.72C22.0067 191.424 20.3994 191.282 18.6503 191.282C17.5275 191.282 16.4284 191.341 15.3884 191.471C15.3884 191.471 15.3884 191.471 15.3766 191.471C12.2801 191.861 9.65645 192.807 7.47003 194.296C6.77274 194.78 6.13455 195.3 5.60272 195.856C5.50817 195.951 5.43726 196.021 5.35453 196.116C4.91725 196.565 4.55087 197.038 4.20814 197.558C3.06175 199.331 2.47083 201.411 2.47083 203.774C2.47083 207.143 3.51085 209.707 5.5909 211.492C6.6782 212.414 8.40369 213.335 10.7556 214.245C12.2565 214.813 14.0056 215.404 16.0266 215.983C16.8184 216.196 17.5394 216.42 18.2012 216.621C18.213 216.621 18.2366 216.633 18.2485 216.633C21.2504 217.519 23.1768 218.228 24.0513 218.736C25.1386 219.351 25.6705 220.308 25.6705 221.597C25.6705 224.362 23.6022 225.745 19.4894 225.745C16.9957 225.745 15.0929 225.225 13.7811 224.149C12.4338 223.086 11.7129 221.455 11.6065 219.28H0.922607C1.00534 223.629 2.43537 227.069 5.23634 229.598C6.22909 230.508 7.35185 231.264 8.61642 231.89L8.62824 231.902C11.4292 233.297 14.9038 233.97 19.0639 233.97C24.0631 233.97 28.0932 232.919 31.1542 230.803C34.6643 228.38 36.4253 224.929 36.4253 220.474C36.4371 216.373 34.7707 213.312 31.4379 211.267Z" fill="white"/>
<path d="M72.6724 192.807C72.6724 193.516 72.5187 194.166 72.2233 194.768C72.2114 194.816 72.1878 194.851 72.1642 194.887V194.898C71.9514 195.288 71.6678 195.655 71.3251 195.998C70.4269 196.896 69.3514 197.345 68.0632 197.345C66.8104 197.345 65.7467 196.896 64.8604 195.998C64.7185 195.856 64.6004 195.714 64.4704 195.56C63.8322 194.757 63.5131 193.823 63.5131 192.795C63.5131 191.507 63.9622 190.419 64.8604 189.533C65.7231 188.646 66.7631 188.197 67.9804 188.186H68.0632C69.0677 188.186 69.9541 188.469 70.7105 189.001C70.9232 189.155 71.1241 189.32 71.3251 189.521C71.6678 189.864 71.9396 190.23 72.1642 190.632C72.5069 191.294 72.6724 192.015 72.6724 192.807Z" fill="#C4D0FB"/>
<path d="M83.0962 192.806C83.0962 194.047 82.6471 195.111 81.7725 196.009C80.8743 196.907 79.7752 197.357 78.5106 197.357C77.2579 197.357 76.206 196.907 75.3315 196.009C75.1897 195.867 75.0715 195.726 74.9651 195.572H74.9297C74.776 195.371 74.6342 195.158 74.516 194.922C74.1733 194.284 74.0078 193.575 74.0078 192.806C74.0078 192.003 74.1733 191.27 74.516 190.632C74.7287 190.242 75.0006 189.875 75.3197 189.545C76.1824 188.658 77.2106 188.209 78.4161 188.197H78.5106C79.7752 188.197 80.8743 188.646 81.7725 189.545C82.6471 190.431 83.0962 191.53 83.0962 192.806Z" fill="#C4D0FB"/>
</svg>
