<svg width="155" height="135" viewBox="0 0 155 135" fill="none" xmlns="http://www.w3.org/2000/svg">
<g clip-path="url(#clip0_239_2730)">
<path d="M114.604 134.759L55.4304 127.111C39.4714 125.046 28.198 110.426 30.2602 94.4528L37.9018 35.2261C39.9754 19.2413 54.5826 7.95782 70.5417 10.0219L129.715 17.6703C145.674 19.7343 156.948 34.3546 154.885 50.3281L147.244 109.555C145.182 125.54 130.563 136.823 114.604 134.759Z" fill="#A5A5A5"/>
<path d="M154.573 44.9384L153.931 49.8922L148.375 92.9504L146.931 104.177C146.931 104.211 146.92 104.257 146.92 104.291C144.8 120.207 130.227 131.422 114.291 129.358L111.141 128.945L103.854 128.005L98.6071 127.328L77.4124 124.588L58.5319 122.157L55.1178 121.709C41.473 119.944 31.2537 108.993 29.8789 95.863C29.8216 95.2897 29.7758 94.7163 29.7528 94.143C29.6726 92.4688 29.7414 90.7717 29.9591 89.0517L30.5548 84.4534L30.7839 82.6531L33.5794 60.9577L33.8199 59.1574L35.0916 49.2156H35.1031L35.3322 47.4153L36.9132 35.1228L37.6006 29.8136C38.3109 24.3439 40.4877 19.4246 43.6841 15.4111C43.8674 15.1818 44.0507 14.941 44.2569 14.7231C46.1358 12.4871 48.3355 10.5606 50.7872 9.00114C56.3551 5.42346 63.1603 3.71489 70.2291 4.63224L77.4124 5.56106L104.015 9.00114L129.414 12.2807C133.871 12.854 137.961 14.4135 141.501 16.7184C141.684 16.8445 141.879 16.9592 142.062 17.0968C150.849 23.071 156.028 33.6665 154.573 44.9384Z" fill="white"/>
<path d="M69.2095 13.0485C70.2406 13.0485 71.2946 13.1173 72.3257 13.2549L125.198 20.0892C131.568 20.9148 137.239 24.1714 141.157 29.2627C145.075 34.354 146.782 40.6723 145.957 47.0364L139.129 99.9562C137.583 111.916 127.352 120.941 115.322 120.941C114.291 120.941 113.237 120.872 112.206 120.734L59.3339 113.9C46.1817 112.203 36.8674 100.105 38.5745 86.9528L45.4026 34.0329C46.9493 22.0729 57.18 13.0485 69.2095 13.0485ZM69.2095 9.6084C55.599 9.6084 43.7758 19.7222 41.9885 33.5972L35.1604 86.517C33.2128 101.585 43.8445 115.368 58.8871 117.317L111.759 124.151C112.951 124.3 114.142 124.381 115.311 124.381C128.921 124.381 140.745 114.267 142.532 100.392L149.36 47.4722C151.308 32.4046 140.676 18.6214 125.633 16.672L72.7725 9.83774C71.5695 9.68867 70.3895 9.6084 69.2095 9.6084Z" fill="#240259"/>
<path d="M129.918 50.5342L119.722 49.2155L114.761 48.5733L114.051 48.4816C113.581 48.4242 113.1 48.5618 112.733 48.86L88.8805 68.434L87.8837 69.2482L82.0981 73.9955L79.1767 76.392L77.4124 77.8369L76.8281 78.3185L72.2455 77.7222L72.4746 75.9792L72.7266 73.9955L72.9099 72.585L72.9787 72.0461C72.9901 72.0002 72.9901 71.9543 72.9901 71.9085C73.2422 69.1564 70.2978 67.3446 67.9721 68.5372C67.7774 68.6289 67.5941 68.7436 67.4108 68.8812L66.941 69.2482L58.761 75.4862L57.7757 76.243L54.9918 78.3643L54.4877 78.7542C54.3273 78.8689 54.1898 79.0065 54.0638 79.1441C53.7659 79.4537 53.5482 79.8207 53.3993 80.1991C53.0098 81.1508 53.0671 82.2516 53.6055 83.1805C53.6857 83.3181 53.7659 83.4442 53.869 83.5703L54.3502 84.1895L63.8592 96.4133C65.7381 98.8213 69.6448 97.8122 70.0458 94.762L70.779 89.0859L73.9296 89.4987L77.4124 89.9459L79.1996 90.1753C79.4287 90.2097 79.6693 90.1867 79.8985 90.1179C80.1276 90.0606 80.3338 89.9459 80.5171 89.7969L80.8837 89.4987L83.45 87.3888L97.0376 76.243L98.0343 75.4288L116.296 60.4416L116.422 60.3384L121.234 60.9576H121.245L128.452 61.8979C129.403 62.024 130.273 61.3589 130.399 60.4186L130.617 58.6757L131.419 52.4606C131.545 51.5203 130.869 50.6603 129.918 50.5342ZM125.519 84.6138L124.27 84.4533L119.321 83.8111L113.489 83.0658L106.97 74.0528L101.288 78.7084L100.761 79.1441L99.2143 80.4169L98.2863 81.1737L99.707 83.1346L100.475 84.1895L107.005 93.2255C107.142 93.409 107.314 93.5695 107.52 93.6956C107.727 93.8218 107.956 93.8906 108.185 93.925L119.378 95.3698L124.052 95.9775C124.362 96.0234 124.671 95.9775 124.946 95.8514C125.221 95.7367 125.473 95.5533 125.656 95.3125C125.84 95.0831 125.954 94.8079 126 94.4983L126.218 92.7553L127.02 86.5403C127.146 85.6 126.47 84.74 125.519 84.6138ZM94.2536 56.5084L92.7299 54.3985L91.9737 53.355L86.2454 45.4428C86.108 45.2479 85.9361 45.0874 85.7299 44.9612C85.5237 44.8466 85.2945 44.7663 85.0539 44.7319L77.4124 43.7457L76.6448 43.6425L76.851 42.0372L76.8739 41.8996L77.378 37.9664C77.3895 37.9205 77.3895 37.8747 77.3895 37.8288C77.4009 37.76 77.4009 37.7027 77.4009 37.6453C77.4124 37.5995 77.4124 37.5536 77.4124 37.5077C77.4124 37.1523 77.3551 36.8083 77.252 36.4986C76.5761 34.3429 73.815 33.265 71.8101 34.8015L58.887 44.6746C58.3829 45.0644 58.0163 45.569 57.7987 46.1194C57.3518 47.2087 57.4893 48.493 58.2684 49.4907L61.3158 53.4123L62.0834 54.3985L68.2585 62.3336C68.3387 62.4368 68.4189 62.5285 68.4991 62.6088C68.797 62.9184 69.1178 63.1592 69.4729 63.3198C71.4549 64.2944 74.1129 63.1707 74.4451 60.6824L75.0982 55.6025L75.1783 55.0062L77.4124 55.2929L79.7152 55.6025H79.761L84.2978 61.8635L85.3518 63.3198L86.2798 64.6041L94.9639 57.4831L94.2536 56.5084Z" fill="#D6D6D6"/>
<path d="M130.147 48.7916L119.493 47.4156L114.532 46.7734L114.28 46.739C113.799 46.6817 113.317 46.8193 112.951 47.1174L87.8952 67.6776L86.8412 68.5376L81.9148 72.5854L77.4124 76.2778L77.0458 76.5759L75.648 76.3925L72.4746 75.9797H72.4631L72.7152 73.9844L72.8985 72.5854L72.9901 71.9089L73.1963 70.3035C73.5859 67.2648 70.0687 65.281 67.6399 67.1387L66.9296 67.6776L65.9443 68.4344L57.7757 74.6724L56.7904 75.4292L54.7168 77.0117C54.4762 77.1951 54.27 77.4016 54.0981 77.6194C53.8346 77.952 53.6399 78.3189 53.5253 78.7088C53.3764 79.1904 53.3306 79.6949 53.3993 80.1995C53.4795 80.7728 53.7086 81.3347 54.0981 81.8278L54.3502 82.1489L55.1178 83.135L64.0883 94.6707C65.9672 97.0902 69.8739 96.0697 70.2634 93.0195L70.9967 87.3434L71.3633 87.3892L73.6317 87.6874L77.4124 88.169L79.4173 88.4327C79.6579 88.4671 79.8985 88.4442 80.1276 88.3754C80.3453 88.3181 80.5629 88.2034 80.7462 88.0543L81.2045 87.6874L96.0523 75.498L97.049 74.6724L116.113 59.043L116.651 58.5958L121.005 59.1577L128.681 60.1553C129.632 60.2814 130.502 59.6164 130.617 58.6761L131.419 52.461L131.648 50.718C131.763 49.7778 131.098 48.9177 130.147 48.7916ZM125.748 82.8713L124.041 82.6534L119.08 82.0112L113.718 81.3232L107.188 72.3102L100.727 77.6194L99.8215 78.3648L98.504 79.4427L99.2143 80.4173L100.475 82.1603L101.208 83.1809L107.222 91.4829C107.371 91.6664 107.543 91.8269 107.749 91.9531C107.956 92.0792 108.173 92.148 108.414 92.1824L119.653 93.6387L124.281 94.235C124.556 94.2694 124.82 94.2464 125.072 94.1432C125.221 94.0974 125.37 94.0286 125.496 93.9368C125.885 93.6731 126.16 93.2488 126.218 92.7557L127.02 86.5407L127.249 84.7977C127.363 83.8574 126.699 82.9974 125.748 82.8713ZM93.5089 53.4128L92.7413 52.3578L86.4746 43.7003C86.3371 43.5054 86.1538 43.3448 85.9475 43.2187C85.7413 43.104 85.5237 43.0237 85.2831 42.9893L77.9737 42.049L77.4124 41.9688L76.8739 41.9H76.8624L77.3895 37.8292L77.4124 37.6916L77.4238 37.5884L77.5498 36.5793L77.5957 36.2239C77.6759 35.6276 77.5957 35.0772 77.4124 34.5841C76.6448 32.5544 73.9868 31.5683 72.0392 33.059L59.1161 42.932C58.0965 43.7118 57.6382 44.9387 57.7986 46.1198C57.8788 46.6932 58.108 47.2665 58.4975 47.7596L62.0834 52.3578L62.851 53.344L68.4877 60.5911C68.7512 60.9236 69.049 61.1988 69.3813 61.3937C69.7364 61.6345 70.126 61.7836 70.5269 61.8639C72.36 62.2308 74.3878 61.0956 74.6628 58.9398L75.0981 55.6029L75.3273 53.7912L75.396 53.2637L77.4124 53.5274L79.486 53.7912L79.9786 53.86L85.4435 61.3937L86.3256 62.6092L86.5089 62.8615L94.2536 56.5088L95.193 55.7405L93.5089 53.4128Z" fill="#240259"/>
<path d="M40.2208 134.758L99.3942 127.11C115.353 125.046 126.627 110.425 124.564 94.452L116.923 35.2254C114.861 19.252 100.253 7.96856 84.2944 10.0326L25.121 17.681C9.15043 19.7451 -2.12288 34.3654 -0.0606935 50.3388L7.59233 109.565C9.65452 125.539 24.2617 136.822 40.2208 134.758Z" fill="#808080"/>
<path d="M125.072 94.143C125.049 94.7163 125.003 95.2897 124.946 95.8515C123.571 108.993 113.352 119.944 99.6955 121.709L96.2814 122.157L77.4124 124.588L56.2062 127.328L50.959 128.005L42.7905 129.06L40.5221 129.358C24.563 131.422 9.9558 120.15 7.89361 104.177L1.78723 56.8984L0.939442 50.3394L0.240588 44.9384C-1.05401 34.9508 2.87561 25.4791 9.90998 19.2984C10.0704 19.1608 10.2193 19.0347 10.3797 18.8971C14.5041 15.4111 19.6596 13.026 25.4108 12.2807L50.7872 9.00114L77.4124 5.56106L84.5842 4.63224C91.653 3.71489 98.4467 5.42346 104.015 9.00114C106.466 10.5492 108.677 12.4871 110.568 14.7231C110.763 14.941 110.957 15.1818 111.141 15.4111C114.337 19.4246 116.514 24.3439 117.224 29.8136L119.493 47.4153L119.722 49.2156L121.005 59.1574L121.245 60.9577L123.422 77.8256L124.041 82.6531L124.27 84.4534L124.866 89.0517C125.083 90.7717 125.152 92.4688 125.072 94.143Z" fill="white"/>
<path d="M85.6153 13.0485C97.6448 13.0485 107.876 22.0729 109.422 34.0329L116.25 86.9528C117.075 93.3284 115.368 99.6466 111.45 104.726C107.532 109.806 101.861 113.074 95.4909 113.9L42.6186 120.746C41.5875 120.883 40.5335 120.952 39.5024 120.952C27.473 120.952 17.2422 111.928 15.6956 99.9677L8.86743 47.0364C8.04255 40.6608 9.74959 34.3425 13.6678 29.2627C17.5859 24.1828 23.2569 20.9148 29.6268 20.0892L82.4991 13.2549C83.5302 13.1173 84.5842 13.0485 85.6153 13.0485ZM85.6153 9.6084C84.4467 9.6084 83.2553 9.68867 82.0638 9.83774L29.1915 16.672C14.1375 18.6214 3.50573 32.4161 5.45336 47.4836L12.2815 100.403C14.0687 114.267 25.892 124.392 39.5024 124.392C40.671 124.392 41.8625 124.312 43.054 124.163L95.9263 117.329C110.98 115.379 121.601 101.596 119.653 86.5285L112.836 33.5972C111.038 19.7222 99.2258 9.6084 85.6153 9.6084Z" fill="#240259"/>
<path d="M101.414 80.1763C101.265 79.7979 101.047 79.4539 100.761 79.1443C100.635 79.0067 100.486 78.8691 100.326 78.7544L99.8215 78.3646L97.0376 76.2432L96.0523 75.4978L87.8837 69.2484L87.4025 68.8814C87.2192 68.7438 87.0359 68.6292 86.8412 68.5374C84.4811 67.3219 81.4909 69.2254 81.8461 72.0463L81.9148 72.5852L82.0981 73.9957L82.3502 75.9795L82.5793 77.7224L77.9967 78.3187L77.4124 77.8371L75.648 76.3923L72.7266 73.9957L72.7152 73.9842L66.941 69.2484L65.9443 68.4342L42.0916 48.8602C41.725 48.5621 41.2438 48.4245 40.7626 48.4818L40.0523 48.5735L35.1031 49.2157H35.0916L24.8952 50.5344C23.9672 50.6605 23.3142 51.4747 23.3944 52.3805L24.1964 58.6759C24.1964 58.6873 24.1964 58.6988 24.2078 58.7103L24.4255 60.4188C24.5515 61.3591 25.4108 62.0242 26.3617 61.8981L33.5793 60.9578L38.3911 60.3386L38.5286 60.4533L56.7905 75.429L57.7757 76.2432L71.3633 87.389L73.9296 89.499L74.2962 89.7971C74.4795 89.9462 74.6972 90.0608 74.9263 90.1182C75.1554 90.187 75.396 90.2099 75.6251 90.1755L77.4124 89.9462L80.8837 89.499L84.0458 89.0861L84.5498 93.0193C84.5498 93.0537 84.5613 93.0881 84.5728 93.1225L84.779 94.7623C85.1685 97.8125 89.0867 98.8216 90.9541 96.4135L100.475 84.1898L100.956 83.5705C101.047 83.4444 101.139 83.3183 101.208 83.1807C101.758 82.2519 101.815 81.1396 101.414 80.1763ZM55.6104 80.4057L54.0638 79.1443L53.5253 78.7086L47.8543 74.053L41.324 83.066L35.5041 83.8114L30.5548 84.4535H30.5433L29.2946 84.614C28.3666 84.7402 27.7136 85.5543 27.7938 86.4602L28.5957 92.7556C28.5957 92.767 28.5957 92.7785 28.6072 92.79L28.8248 94.4985C28.8707 94.8081 28.9852 95.0833 29.1685 95.3127C29.3519 95.5535 29.5924 95.7484 29.8789 95.8631C30.1538 95.9778 30.4517 96.0236 30.761 95.9778L35.4468 95.37L46.6284 93.9252C46.869 93.8908 47.0982 93.822 47.2929 93.6958C47.4991 93.5697 47.6824 93.4092 47.8199 93.2257L54.3502 84.1898L55.1178 83.1348L56.5384 81.174L55.6104 80.4057ZM97.0146 46.0967C96.797 45.5463 96.4304 45.0646 95.9263 44.6748L83.0032 34.8018C80.9754 33.2423 78.18 34.3775 77.5499 36.5791C77.4582 36.8658 77.4124 37.1754 77.4124 37.508C77.4124 37.5309 77.4124 37.5653 77.4238 37.5882C77.4124 37.7144 77.4238 37.829 77.4467 37.9666L77.9508 41.8998L77.9737 42.0488L78.18 43.6428L77.4124 43.746L69.7593 44.7321C69.5302 44.7665 69.3011 44.8468 69.0949 44.9614C68.8886 45.0876 68.7168 45.2481 68.5793 45.4431L62.851 53.3438L62.0834 54.3987L60.5597 56.4972L59.8494 57.4833L68.5449 64.6043L69.4729 63.32L70.5269 61.8637L75.0638 55.6027H75.0981L77.4124 55.2931L79.6464 55.0065L79.7266 55.6027L80.1505 58.9396C80.1505 58.974 80.162 59.0084 80.1734 59.0428L80.3796 60.6826C80.7004 63.1709 83.3698 64.3061 85.3518 63.32C85.707 63.148 86.0277 62.9186 86.3256 62.609C86.3944 62.5288 86.4746 62.437 86.5548 62.3338L92.7299 54.3987L93.5089 53.4126L96.5564 49.4909C97.3354 48.4818 97.4729 47.186 97.0146 46.0967Z" fill="#D6D6D6"/>
<path d="M101.288 78.7088C101.173 78.3189 100.979 77.952 100.727 77.6194C100.555 77.4016 100.349 77.1951 100.108 77.0117L98.0343 75.4292L97.049 74.6724L88.8804 68.4344L87.8952 67.6776L87.1849 67.1387C84.7561 65.281 81.2274 67.2648 81.6169 70.3035L81.8461 72.0465L81.9148 72.5854L82.0981 73.9959L82.3502 75.9797L79.1767 76.3925L77.7675 76.5759L77.4124 76.2778L72.9099 72.5854H72.8985L67.9721 68.5376L66.9296 67.6776L41.8625 47.1174C41.4959 46.8193 41.0147 46.6817 40.545 46.739L40.2929 46.7734L35.3322 47.4156L24.6776 48.7916C23.7267 48.9177 23.0507 49.7778 23.1767 50.718L23.3944 52.3807L24.1964 58.6761C24.1964 58.6875 24.1964 58.699 24.2078 58.7105C24.3453 59.6278 25.2046 60.2814 26.144 60.1553L33.8085 59.1577H33.8199L38.1735 58.5958L38.7119 59.0316L57.7757 74.6724L58.761 75.4866L73.6317 87.6874L74.0785 88.0543C74.2618 88.2034 74.468 88.3181 74.6971 88.3754C74.9263 88.4442 75.1669 88.4671 75.396 88.4327L77.4124 88.169L81.2045 87.6874L83.45 87.3892L83.8166 87.3434L84.0458 89.0863L84.5498 93.0195C84.5498 93.0539 84.5613 93.0883 84.5728 93.1227C85.0425 96.0926 88.8804 97.0673 90.7364 94.6707L99.7069 83.135L100.475 82.1603L100.727 81.8278C101.116 81.3232 101.345 80.7614 101.414 80.1765C101.483 79.6835 101.448 79.1789 101.288 78.7088ZM54.9918 78.3648L54.0982 77.6194L47.6252 72.3102L41.1063 81.3232L35.7447 82.0112L30.7839 82.6534L29.0769 82.8713C28.126 82.9974 27.4501 83.8574 27.5761 84.7977L27.7938 86.4604L28.5957 92.7557C28.5957 92.7672 28.5957 92.7787 28.6072 92.7901C28.6759 93.2718 28.9509 93.6731 29.3289 93.9368C29.455 94.0286 29.6039 94.0974 29.7528 94.1432C30.0049 94.2464 30.2684 94.2694 30.5433 94.235L35.1718 93.6387L46.4108 92.1824C46.6399 92.148 46.869 92.0792 47.0752 91.9531C47.2815 91.8269 47.4533 91.6664 47.5908 91.4829L53.6055 83.1809L54.3502 82.1489L55.6104 80.4059L56.3093 79.4427L54.9918 78.3648ZM95.7086 42.932L82.7855 33.059C80.8379 31.5683 78.1685 32.5544 77.4124 34.5841C77.2176 35.0772 77.1374 35.6276 77.2176 36.2239L77.252 36.4991L77.4009 37.6458L77.4124 37.6916L77.4467 37.9668L77.9508 41.9L77.4124 41.9688L76.851 42.0376L69.5417 42.9893C69.3011 43.0237 69.072 43.104 68.8657 43.2187C68.6595 43.3448 68.4877 43.5054 68.3502 43.7003L62.0834 52.3578L61.3158 53.4128L59.6317 55.7405L60.5597 56.4974L68.3158 62.8615L68.4991 62.6092L69.3813 61.3937L74.8346 53.86L75.3273 53.7912L77.4124 53.5274L79.4173 53.2637L79.486 53.7912L79.6464 55.0067L79.7152 55.6029L80.1505 58.9398C80.1505 58.9742 80.162 59.0086 80.1734 59.043C80.5057 61.13 82.4991 62.2308 84.2978 61.8639C84.6988 61.7836 85.0883 61.6345 85.4435 61.3937C85.7757 61.1988 86.0736 60.9236 86.3371 60.5911L91.9737 53.3554L92.7413 52.3578L96.3272 47.7596C96.7168 47.255 96.9459 46.6817 97.0146 46.0969C97.175 44.9272 96.7168 43.7003 95.7086 42.932Z" fill="#240259"/>
<path opacity="0.2" d="M144.101 29.1485V91.2075C144.101 110.208 129.632 125.895 111.141 127.798C109.892 127.936 108.62 128.005 107.337 128.005H45.3453C44.4861 128.005 43.6383 127.97 42.7905 127.913C23.7038 126.606 8.56958 110.632 8.56958 91.2075V29.1485C8.56958 27.8527 8.63832 26.5799 8.7758 25.3186C8.98202 23.2545 9.37154 21.2478 9.91 19.2984C10.0704 19.1608 10.2193 19.0347 10.3797 18.8971C14.5041 15.4111 19.6596 13.026 25.4108 12.2807L50.7872 9.00114C56.3551 5.42346 63.1604 3.71489 70.2291 4.63224L77.4124 5.56106L84.5843 4.63224C91.653 3.71489 98.4468 5.42346 104.015 9.00114L129.414 12.2807C133.871 12.854 137.961 14.4135 141.501 16.7184C141.684 16.8445 141.879 16.9592 142.062 17.0968C142.738 19.0118 143.254 20.9955 143.586 23.0252C143.769 24.0457 143.895 25.0892 143.975 26.1442C144.056 27.1303 144.101 28.1394 144.101 29.1485Z" fill="black"/>
<path d="M107.337 122.65H45.3453C28.6301 122.65 15.0654 109.085 15.0654 92.3431V30.3071C15.0654 13.5654 28.6301 0 45.3453 0H107.337C124.052 0 137.617 13.5654 137.617 30.3071V92.3545C137.617 109.085 124.064 122.65 107.337 122.65Z" fill="white"/>
<path d="M107.337 128.303H45.3453C28.6301 128.303 15.0654 114.738 15.0654 97.9961V35.9487C15.0654 19.2184 28.6186 5.6416 45.3453 5.6416H107.337C124.052 5.6416 137.617 19.207 137.617 35.9487V97.9961C137.617 114.738 124.064 128.303 107.337 128.303Z" fill="#A5A5A5"/>
<path d="M107.337 122.65H45.3453C28.6301 122.65 15.0654 109.085 15.0654 92.3431V30.3071C15.0654 13.5654 28.6301 0 45.3453 0H107.337C124.052 0 137.617 13.5654 137.617 30.3071V92.3545C137.617 109.085 124.064 122.65 107.337 122.65Z" fill="white"/>
<path d="M104.038 8.47425C117.889 8.47425 129.15 19.7462 129.15 33.6097V89.0523C129.15 102.916 117.889 114.188 104.038 114.188H48.6448C34.7937 114.188 23.5319 102.916 23.5319 89.0523V33.6097C23.5319 19.7462 34.7937 8.47425 48.6448 8.47425H104.038ZM104.038 5.03418H48.6448C32.8805 5.03418 20.0949 17.8313 20.0949 33.6097V89.0523C20.0949 104.831 32.8805 117.628 48.6448 117.628H104.038C119.802 117.628 132.587 104.831 132.587 89.0523V33.6097C132.587 17.8198 119.802 5.03418 104.038 5.03418Z" fill="#240259"/>
<path d="M38.9869 47.8282C37.5777 46.4292 37.5777 44.1702 38.9869 42.7827L50.9934 30.8801C53.2504 28.644 57.1456 30.215 57.1456 33.4028V39.3541H65.9672C66.2193 39.3541 66.4598 39.4 66.689 39.5032C66.9181 39.6064 67.1243 39.744 67.2847 39.9274L77.8706 51.1765L69.8625 59.6735L61.9459 51.2568H57.1456V57.2081C57.1456 60.3959 53.2504 61.9669 50.9934 59.7308L38.9869 47.8282ZM112.951 75.0506H100.349L92.432 66.6339L84.4238 75.1309L95.0097 86.3799C95.1816 86.5634 95.3763 86.701 95.6055 86.8042C95.8346 86.9074 96.0752 86.9533 96.3272 86.9533H112.951C113.948 86.9533 114.749 86.1506 114.749 85.1644V76.8395C114.749 75.8533 113.948 75.0506 112.951 75.0506ZM57.1341 75.0506V69.0993C57.1341 65.9115 53.2389 64.3405 50.9819 66.5766L38.9869 78.4792C37.5777 79.8782 37.5777 82.1372 38.9869 83.5247L50.9934 95.4273C53.2504 97.6634 57.1456 96.0924 57.1456 92.9046V86.9533H65.9672C66.2193 86.9533 66.4598 86.9074 66.689 86.8042C66.9181 86.7125 67.1243 86.5634 67.2847 86.3799L100.36 51.2453H112.962C113.959 51.2453 114.761 50.4426 114.761 49.4565V41.1315C114.761 40.1453 113.959 39.3426 112.962 39.3426H96.3272C95.8232 39.3426 95.3534 39.549 95.0097 39.9045L61.9345 75.0506H57.1341Z" fill="#D6D6D6"/>
<path d="M38.9869 46.0049C37.5777 44.6059 37.5777 42.347 38.9869 40.9595L50.9934 29.0568C53.2504 26.8208 57.1456 28.3917 57.1456 31.5795V37.5309H65.9672C66.2193 37.5309 66.4598 37.5767 66.689 37.6799C66.9181 37.7831 67.1243 37.9207 67.2847 38.1042L77.8706 49.3533L69.8625 57.8502L61.9459 49.4335H57.1456V55.3848C57.1456 58.5726 53.2504 60.1436 50.9934 57.9076L38.9869 46.0049ZM112.951 73.2274H100.349L92.432 64.8107L84.4238 73.3076L95.0097 84.5567C95.1816 84.7401 95.3763 84.8778 95.6055 84.981C95.8346 85.0842 96.0752 85.13 96.3273 85.13H112.951C113.948 85.13 114.749 84.3273 114.749 83.3412V75.0162C114.749 74.03 113.948 73.2274 112.951 73.2274ZM57.1342 73.2274V67.276C57.1342 64.0882 53.2389 62.5173 50.9819 64.7533L38.9869 76.656C37.5777 78.0549 37.5777 80.3139 38.9869 81.7014L50.9934 93.6041C53.2504 95.8401 57.1456 94.2692 57.1456 91.0814V85.13H65.9672C66.2193 85.13 66.4598 85.0842 66.689 84.981C66.9181 84.8892 67.1243 84.7401 67.2847 84.5567L100.349 49.422H112.951C113.948 49.422 114.749 48.6194 114.749 47.6332V39.3082C114.749 38.3221 113.948 37.5194 112.951 37.5194H96.3273C95.8232 37.5194 95.3534 37.7258 95.0097 38.0813L61.9345 73.2274H57.1342Z" fill="#240259"/>
</g>
<defs>
<clipPath id="clip0_239_2730">
<rect width="154.825" height="135" fill="white"/>
</clipPath>
</defs>
</svg>
